<svg width="334" height="100" viewBox="0 0 334 100" fill="none" xmlns="http://www.w3.org/2000/svg">
<rect width="333.333" height="100" rx="10" fill="white"/>
<path d="M119.85 57H123.3L116.125 39.825H112.65L105.475 57H108.95L110.25 53.9H118.55L119.85 57ZM111.375 51.2L114.4 43.975L117.425 51.2H111.375ZM134.224 44.075V52.25C134.024 53.625 132.699 54.7 131.099 54.7C129.499 54.7 128.374 53.45 128.374 51.7V44.075H125.424V52.3C125.424 55.225 127.399 57.3 130.224 57.3C131.924 57.3 133.424 56.475 134.224 55.275V57H137.274V44.075H134.224ZM150.46 39.525V46.075C149.435 44.625 147.885 43.775 145.985 43.775C142.56 43.775 140.06 46.575 140.06 50.525C140.06 54.5 142.56 57.3 145.985 57.3C147.885 57.3 149.435 56.45 150.46 55V57H153.51V39.525H150.46ZM146.81 54.7C144.635 54.7 143.085 52.95 143.085 50.525C143.085 48.1 144.635 46.375 146.81 46.375C148.96 46.375 150.46 48.1 150.46 50.525C150.46 52.95 148.96 54.7 146.81 54.7ZM158.494 42.125C159.444 42.125 160.219 41.3 160.219 40.375C160.219 39.45 159.444 38.65 158.494 38.65C157.519 38.65 156.744 39.45 156.744 40.375C156.744 41.3 157.519 42.125 158.494 42.125ZM156.944 57H159.994V44.075H156.944V57ZM169.614 57.3C173.364 57.3 176.539 54.2 176.539 50.525C176.539 46.85 173.364 43.775 169.614 43.775C165.864 43.775 162.689 46.85 162.689 50.525C162.689 54.2 165.864 57.3 169.614 57.3ZM169.614 54.7C167.464 54.7 165.664 52.8 165.664 50.525C165.664 48.275 167.464 46.375 169.614 46.375C171.739 46.375 173.539 48.275 173.539 50.525C173.539 52.8 171.739 54.7 169.614 54.7ZM194.74 57.3C197.265 57.3 199.565 56.225 201.215 54.5L199.015 52.45C197.94 53.675 196.415 54.45 194.74 54.45C191.565 54.45 188.89 51.7 188.89 48.4C188.89 45.125 191.565 42.375 194.74 42.375C196.39 42.375 197.94 43.15 198.99 44.375L201.215 42.3C199.565 40.6 197.265 39.525 194.74 39.525C189.84 39.525 185.715 43.575 185.715 48.4C185.715 53.225 189.84 57.3 194.74 57.3ZM203.526 57H206.576V39.525H203.526V57ZM215.571 43.775C213.946 43.775 212.246 44.225 210.421 45.125L211.471 47.25C212.571 46.7 213.746 46.275 214.971 46.275C217.321 46.275 218.146 47.725 218.146 49.225V49.575C216.971 49.125 215.696 48.875 214.521 48.875C211.621 48.875 209.246 50.625 209.246 53.175C209.246 55.675 211.321 57.3 214.071 57.3C215.571 57.3 217.196 56.65 218.146 55.45V57H221.121V49.225C221.121 45.95 218.996 43.775 215.571 43.775ZM214.746 55.075C213.296 55.075 212.221 54.3 212.221 53.075C212.221 51.85 213.446 51 214.971 51C216.121 51 217.196 51.175 218.146 51.5V52.95C217.796 54.325 216.221 55.075 214.746 55.075ZM229.199 57.3C232.224 57.3 234.274 55.7 234.274 53.225C234.274 50.525 231.924 49.775 229.749 49.175C227.774 48.6 227.099 48.35 227.099 47.525C227.099 46.8 227.924 46.375 228.999 46.375C230.124 46.375 231.449 46.775 232.674 47.55L233.949 45.325C232.549 44.4 230.774 43.775 228.999 43.775C226.124 43.775 224.124 45.425 224.124 47.85C224.149 50.15 225.924 50.95 228.724 51.675C230.199 52.075 231.324 52.4 231.324 53.4C231.324 54.2 230.474 54.725 229.249 54.725C227.624 54.725 226.174 54.125 224.924 53.225L223.549 55.35C225.099 56.6 227.224 57.3 229.199 57.3ZM241.699 57.3C244.724 57.3 246.774 55.7 246.774 53.225C246.774 50.525 244.424 49.775 242.249 49.175C240.274 48.6 239.599 48.35 239.599 47.525C239.599 46.8 240.424 46.375 241.499 46.375C242.624 46.375 243.949 46.775 245.174 47.55L246.449 45.325C245.049 44.4 243.274 43.775 241.499 43.775C238.624 43.775 236.624 45.425 236.624 47.85C236.649 50.15 238.424 50.95 241.224 51.675C242.699 52.075 243.824 52.4 243.824 53.4C243.824 54.2 242.974 54.725 241.749 54.725C240.124 54.725 238.674 54.125 237.424 53.225L236.049 55.35C237.599 56.6 239.724 57.3 241.699 57.3ZM255.449 54.6C253.599 54.6 252.249 53.35 251.874 51.575H261.624C261.624 46.8 259.299 43.775 255.299 43.775C251.624 43.775 248.724 46.625 248.724 50.5C248.724 54.475 251.774 57.3 255.474 57.3C257.349 57.3 259.599 56.5 260.724 55.3L258.799 53.3C258.074 54.05 256.649 54.6 255.449 54.6ZM255.424 46.475C257.249 46.475 258.349 47.625 258.699 49.25H251.899C252.349 47.55 253.724 46.475 255.424 46.475ZM269.043 57.3C272.068 57.3 274.118 55.7 274.118 53.225C274.118 50.525 271.768 49.775 269.593 49.175C267.618 48.6 266.943 48.35 266.943 47.525C266.943 46.8 267.768 46.375 268.843 46.375C269.968 46.375 271.293 46.775 272.518 47.55L273.793 45.325C272.393 44.4 270.618 43.775 268.843 43.775C265.968 43.775 263.968 45.425 263.968 47.85C263.993 50.15 265.768 50.95 268.568 51.675C270.043 52.075 271.168 52.4 271.168 53.4C271.168 54.2 270.318 54.725 269.093 54.725C267.468 54.725 266.018 54.125 264.768 53.225L263.393 55.35C264.943 56.6 267.068 57.3 269.043 57.3Z" fill="#0A033C"/>
<rect x="15" y="15" width="70" height="70" rx="10" fill="#FFF4F2"/>
<path d="M50.009 59.3518C50.009 59.8803 49.7037 60.3604 49.2258 60.5845C49.041 60.6719 48.8431 60.7141 48.6464 60.7141C48.3349 60.7141 48.0263 60.6071 47.777 60.4004L40.3291 54.2287H36.3623C35.6101 54.2293 35 53.619 35 52.8667V47.4389C35 46.6863 35.6101 46.0762 36.3623 46.0762H40.3294L47.7774 39.9046C48.1843 39.5673 48.7486 39.4954 49.2261 39.7211C49.7037 39.9452 50.0094 40.4256 50.0094 40.9538L50.009 59.3518ZM55.2446 57.223C55.2114 57.2252 55.1795 57.2265 55.1466 57.2265C54.7868 57.2265 54.4398 57.0843 54.1835 56.8276L54.0013 56.6448C53.5234 56.1679 53.4673 55.4124 53.8697 54.8701C54.8899 53.4945 55.4284 51.8639 55.4284 50.1533C55.4284 48.3134 54.8171 46.5876 53.6601 45.1624C53.2197 44.6207 53.2603 43.8339 53.7539 43.3406L53.9358 43.1584C54.208 42.8862 54.5726 42.7379 54.9673 42.7615C55.3517 42.7808 55.7106 42.9617 55.9543 43.2596C57.5592 45.2233 58.4069 47.6075 58.4069 50.1536C58.4069 52.5249 57.6572 54.782 56.2384 56.68C56.0014 56.9963 55.639 57.1949 55.2446 57.223ZM60.8772 61.4332C60.6308 61.7243 60.2745 61.8991 59.8931 61.9152C59.8743 61.9159 59.8553 61.9165 59.836 61.9165C59.4752 61.9165 59.1289 61.774 58.8725 61.5177L58.6935 61.3387C58.1934 60.8389 58.1596 60.0396 58.6142 59.4985C60.8114 56.8854 62.0219 53.5667 62.0219 50.1533C62.0219 46.6028 60.7259 43.1848 58.3737 40.5291C57.8968 39.99 57.921 39.1739 58.4285 38.6644L58.6071 38.4855C58.8722 38.2191 59.2166 38.0724 59.6116 38.085C59.9866 38.0956 60.3413 38.2614 60.5905 38.5419C63.4339 41.7432 65 45.8673 65 50.1533C65.0006 54.2771 63.5364 58.2832 60.8772 61.4332Z" fill="#FF6652"/>
</svg>
