<svg width="355" height="591" viewBox="0 0 355 591" fill="none" xmlns="http://www.w3.org/2000/svg">
<circle cx="178" cy="586" r="4.5" fill="white" stroke="#FF6652"/>
<circle cx="192" cy="586" r="4" fill="#FF6652" fill-opacity="0.5"/>
<circle cx="164" cy="586" r="4" fill="#FF6652" fill-opacity="0.5"/>
<path d="M318.056 512.494C316.604 511.678 314.785 511.02 312.857 510.582C308.499 509.596 303.641 509.523 298.905 509.462C257.869 508.963 217.114 508.78 176.065 508.78C143.744 508.525 111.435 508.257 79.1141 508.099C63.9178 508.026 48.6848 507.965 33.5374 508.671C27.2635 508.963 20.7334 509.438 15.5459 511.374C10.3584 513.309 7.06284 517.132 9.69928 520.224C14.0812 525.337 28.7648 525.045 37.2479 525.057C102.659 525.154 168.083 524.96 233.494 524.753C255.391 524.68 277.289 524.619 299.15 523.986C304.044 523.84 309.097 523.657 313.491 522.476C317.898 521.307 321.547 518.897 321.279 516.255C321.145 514.819 319.887 513.528 318.056 512.494Z" fill="#D9E0FC"/>
<path d="M320.266 399.252C319.155 399.495 317.885 399.629 316.457 399.629C267.365 399.629 218.285 399.629 169.193 399.617C144.647 399.617 120.101 399.617 95.5675 399.605C84.1428 399.605 38.3219 405.911 33.3541 394.65C32.3044 392.276 32.3044 389.659 32.3044 387.102C32.3044 338.906 32.4386 290.709 32.4386 242.513C32.4386 240.808 32.4386 239.092 32.4386 237.388C32.4386 233.784 35.661 230.862 39.6279 230.862C93.3094 230.862 146.979 230.862 200.66 230.862C228.404 230.862 256.148 230.862 283.904 230.862C295.585 230.862 327.565 225.433 327.565 240.687C327.565 269.673 327.552 298.671 327.552 327.657C327.552 342.485 327.552 357.325 327.552 372.153C327.54 381.587 331.886 396.683 320.266 399.252Z" fill="#D9E0FC"/>
<path d="M303.702 389.452C299.223 392.52 290.935 390.779 284.038 390.779C270.453 390.779 256.88 390.779 243.295 390.779C206.543 390.779 169.804 390.779 133.052 390.779C96.019 390.779 58.9986 390.779 21.9659 390.779C20.7209 390.779 19.72 389.781 19.72 388.539C19.7078 359.821 19.5369 331.09 19.4759 302.372C19.4393 288.007 19.4393 273.654 19.5003 259.288C19.5369 249.89 15.6921 229.243 22.0269 221.89C23.809 219.833 46.8049 222.377 49.6733 222.377C62.0134 222.353 74.3535 222.328 86.6815 222.304C110.629 222.255 134.577 222.207 158.525 222.146C190.7 222.146 222.887 222.012 255.062 221.939C271.991 221.902 303.482 222 305.863 222.024C308.926 222.061 307.608 269.612 307.632 273.13C307.791 292.742 307.693 312.367 307.51 331.979C307.376 346.624 307.169 361.269 307.01 375.927C306.985 377.874 306.961 379.822 306.961 381.77C306.973 385.702 305.716 388.064 303.702 389.452Z" fill="#FF6652"/>
<path d="M297.782 374.892C288.97 374.661 280.133 374.831 271.32 374.831C262.495 374.831 253.67 374.843 244.858 374.843C227.208 374.855 209.57 374.868 191.921 374.88C156.817 374.904 121.7 374.916 86.5961 375.014C76.6972 375.038 66.7859 375.062 56.887 375.099C47.0002 375.123 37.0402 375.001 27.1778 375.695C26.6042 375.732 26.6042 376.535 27.1778 376.584C35.9783 377.205 44.8276 377.095 53.6403 377.168C62.4651 377.241 71.2899 377.217 80.1026 377.241C97.7523 377.29 115.39 377.302 133.04 377.327C168.144 377.375 203.26 377.4 238.364 377.424C248.263 377.436 258.174 377.436 268.073 377.448C277.972 377.461 287.883 377.655 297.782 377.4C299.406 377.363 299.418 374.928 297.782 374.892Z" fill="#9C4DF4"/>
<path d="M287.639 373.553C287.346 372.652 286.834 371.861 286.126 371.203C285.21 370.302 284.136 369.669 282.891 369.328C282.671 369.255 282.452 369.182 282.244 369.109C281.28 368.805 280.316 368.768 279.364 368.975C278.399 369.024 277.508 369.304 276.678 369.827C276.19 370.205 275.702 370.582 275.214 370.96C274.506 371.617 274.005 372.384 273.725 373.285C273.395 373.845 273.236 374.454 273.236 375.111C273.017 376.073 273.065 377.022 273.371 377.984C273.615 378.556 273.859 379.128 274.103 379.713C274.75 380.796 275.616 381.661 276.703 382.306C276.898 382.44 277.081 382.574 277.276 382.708C278.424 383.365 279.657 383.706 280.975 383.706C281.622 383.621 282.269 383.535 282.928 383.45C284.173 383.097 285.247 382.476 286.162 381.575C286.882 380.918 287.383 380.127 287.676 379.226C288.14 378.349 288.347 377.412 288.311 376.414C288.311 375.367 288.103 374.429 287.639 373.553Z" fill="#9C4DF4"/>
<path d="M250.387 437.295L49.8809 434.337L50.6743 227.393L249.801 228.927L250.387 437.295Z" fill="white" stroke="black" stroke-width="0.5" stroke-miterlimit="10"/>
<path d="M94.8348 390.657C94.2367 398.278 93.6385 405.887 93.0405 413.508C92.955 414.542 92.2227 415.419 91.1241 415.419C87.6088 415.431 84.1057 415.443 80.5904 415.468C77.4413 415.48 74.2922 415.492 71.1431 415.504C70.3131 415.504 69.4465 415.516 68.7019 415.078C67.8841 414.591 67.4935 413.751 67.3837 412.85C67.225 411.377 67.3959 409.819 67.4325 408.334C67.5546 402.052 67.7865 395.77 68.4822 389.513C68.6043 388.381 69.8737 388.125 70.4596 388.782C71.4849 388.466 72.7177 388.612 73.7307 388.612C75.0002 388.612 76.2573 388.624 77.5268 388.624C82.6288 388.649 87.7431 388.673 92.8452 388.673C93.8583 388.673 94.9202 389.586 94.8348 390.657ZM89.3421 411.609C89.8059 405.29 90.2575 398.972 90.7213 392.654C87.7309 392.666 84.7282 392.69 81.7378 392.702C79.8825 392.715 78.0272 392.727 76.1841 392.739C75.2321 392.751 74.2922 392.751 73.3402 392.751C72.9984 392.751 72.6567 392.751 72.3149 392.751C71.9487 393.056 71.4849 393.238 70.9966 393.262C71.0943 395.296 71.1553 397.341 71.1919 399.386C71.2407 402.32 71.1919 405.254 71.1553 408.188C71.1431 408.955 71.1309 409.722 71.1187 410.489C71.1065 410.89 71.1309 411.316 71.1309 411.743C71.2896 411.755 71.4361 411.767 71.5581 411.767L73.5843 411.755C78.8328 411.706 84.0814 411.657 89.3421 411.609Z" fill="#9C4DF4"/>
<path d="M94.8348 346.222C94.2367 353.843 93.6385 361.452 93.0405 369.073C92.955 370.108 92.2227 370.984 91.1241 370.984C87.6088 370.996 84.1057 371.009 80.5904 371.033C77.4413 371.045 74.2922 371.057 71.1431 371.069C70.3131 371.069 69.4465 371.082 68.7019 370.643C67.8841 370.156 67.4935 369.316 67.3837 368.415C67.225 366.942 67.3959 365.384 67.4325 363.899C67.5546 357.617 67.7865 351.336 68.4822 345.078C68.6043 343.946 69.8737 343.69 70.4596 344.348C71.4849 344.031 72.7177 344.177 73.7307 344.177C75.0002 344.177 76.2573 344.189 77.5268 344.189C82.6288 344.214 87.7431 344.238 92.8452 344.238C93.8583 344.238 94.9202 345.151 94.8348 346.222ZM89.3421 367.174C89.8059 360.856 90.2575 354.537 90.7213 348.219C87.7309 348.231 84.7282 348.256 81.7378 348.268C79.8825 348.28 78.0272 348.292 76.1841 348.304C75.2321 348.304 74.2922 348.316 73.3402 348.316C72.9984 348.316 72.6567 348.316 72.3149 348.316C71.9487 348.621 71.4849 348.803 70.9966 348.828C71.0943 350.861 71.1553 352.906 71.1919 354.951C71.2407 357.885 71.1919 360.819 71.1553 363.753C71.1431 364.52 71.1309 365.287 71.1187 366.054C71.1065 366.456 71.1309 366.882 71.1309 367.308C71.2896 367.32 71.4361 367.332 71.5581 367.332L73.5843 367.32C78.8328 367.271 84.0814 367.222 89.3421 367.174Z" fill="#9C4DF4"/>
<path d="M94.8348 301.788C94.2367 309.409 93.6385 317.017 93.0405 324.638C92.955 325.673 92.2227 326.549 91.1241 326.549C87.6088 326.562 84.1057 326.574 80.5904 326.598C77.4413 326.61 74.2922 326.622 71.1431 326.635C70.3131 326.635 69.4465 326.647 68.7019 326.209C67.8841 325.722 67.4935 324.882 67.3837 323.981C67.225 322.508 67.3959 320.949 67.4325 319.464C67.5546 313.182 67.7865 306.901 68.4822 300.643C68.6043 299.511 69.8737 299.255 70.4596 299.913C71.4849 299.596 72.7177 299.742 73.7307 299.742C75.0002 299.742 76.2573 299.755 77.5268 299.755C82.6288 299.779 87.7431 299.803 92.8452 299.803C93.8583 299.803 94.9202 300.716 94.8348 301.788ZM89.3421 322.739C89.8059 316.421 90.2575 310.102 90.7213 303.784C87.7309 303.796 84.7282 303.821 81.7378 303.833C79.8825 303.845 78.0272 303.857 76.1841 303.869C75.2321 303.869 74.2922 303.882 73.3402 303.882C72.9984 303.882 72.6567 303.882 72.3149 303.882C71.9487 304.186 71.4849 304.369 70.9966 304.393C71.0943 306.426 71.1553 308.471 71.1919 310.516C71.2407 313.45 71.1919 316.384 71.1553 319.318C71.1431 320.085 71.1309 320.852 71.1187 321.619C71.1065 322.021 71.1309 322.447 71.1309 322.873C71.2896 322.885 71.4361 322.897 71.5581 322.897L73.5843 322.885C78.8328 322.836 84.0814 322.788 89.3421 322.739Z" fill="#9C4DF4"/>
<path d="M202.906 304.113C196.498 303.942 190.077 304.076 183.669 304.088C177.322 304.101 170.963 304.101 164.616 304.113C151.788 304.125 138.959 304.186 126.143 304.247C122.567 304.259 118.99 304.283 115.414 304.295C111.789 304.307 108.115 304.234 104.502 304.49C104.038 304.527 104.038 305.172 104.502 305.196C107.688 305.415 110.922 305.354 114.12 305.379C117.33 305.415 120.528 305.415 123.739 305.427C130.086 305.464 136.445 305.488 142.792 305.525C155.62 305.586 168.449 305.574 181.265 305.598C188.478 305.61 195.704 305.768 202.906 305.574C203.858 305.561 203.858 304.137 202.906 304.113Z" fill="#969696"/>
<path d="M158.147 311.04C144.293 310.881 130.439 310.747 116.586 310.747C112.631 310.747 108.664 310.711 104.709 310.772C103.953 310.784 103.953 311.94 104.709 311.953C118.551 312.172 132.417 311.965 146.27 311.88C150.225 311.855 154.192 311.734 158.147 311.685C158.562 311.685 158.562 311.052 158.147 311.04Z" fill="#969696"/>
<path d="M200.684 318.405C188.198 318.174 175.699 318.356 163.212 318.38C150.726 318.405 138.227 318.417 125.74 318.441C118.685 318.454 111.643 318.466 104.588 318.587C104.014 318.6 104.014 319.464 104.588 319.476C117.074 319.707 129.573 319.634 142.06 319.647C154.546 319.671 167.045 319.683 179.532 319.707C186.587 319.72 193.629 319.78 200.684 319.647C201.49 319.647 201.49 318.417 200.684 318.405Z" fill="#969696"/>
<path d="M168.339 348.353C164.115 348.073 159.831 348.304 155.596 348.317C151.348 348.329 147.1 348.341 142.853 348.353C134.358 348.377 125.874 348.402 117.379 348.426C112.57 348.438 107.785 348.499 102.976 348.67C102.634 348.682 102.634 349.193 102.976 349.205C111.459 349.485 119.955 349.449 128.45 349.473C136.945 349.497 145.428 349.522 153.924 349.546C156.267 349.558 158.598 349.558 160.942 349.571C163.395 349.583 165.873 349.68 168.327 349.51C169.095 349.473 169.095 348.402 168.339 348.353Z" fill="#969696"/>
<path d="M194.057 358.129C182.217 357.788 170.353 357.922 158.513 357.897C146.783 357.873 135.066 357.861 123.336 357.824L113.339 357.8C110.019 357.788 106.663 357.642 103.343 357.897C102.537 357.958 102.537 359.091 103.343 359.151C106.296 359.383 109.275 359.261 112.228 359.261C115.195 359.249 118.148 359.249 121.114 359.237C127.034 359.224 132.966 359.212 138.886 359.2C150.616 359.176 162.334 359.164 174.063 359.139C180.728 359.127 187.392 359.127 194.057 358.932C194.569 358.908 194.569 358.141 194.057 358.129Z" fill="#969696"/>
<path d="M197.523 395.539C185.158 395.235 172.794 395.381 160.429 395.393C148.065 395.393 135.7 395.405 123.335 395.442C116.415 395.466 109.482 395.551 102.561 395.466C101.755 395.454 101.755 396.72 102.561 396.72C114.926 396.574 127.29 396.781 139.655 396.793C152.019 396.793 164.384 396.805 176.748 396.805C183.669 396.805 190.59 396.817 197.523 396.647C198.231 396.635 198.231 395.563 197.523 395.539Z" fill="#969696"/>
<path d="M122.554 402.064C116.012 402.064 109.482 402.198 102.952 402.259C102.488 402.259 102.488 402.965 102.952 402.965C109.482 403.026 116.024 403.16 122.554 403.16C123.275 403.172 123.275 402.064 122.554 402.064Z" fill="#969696"/>
<path d="M188.674 402.88C181.435 402.405 174.136 402.612 166.886 402.649C159.563 402.685 152.239 402.734 144.915 402.77C140.79 402.795 136.664 402.819 132.551 403.026C132.087 403.05 132.087 403.72 132.551 403.732C139.801 404.097 147.076 404 154.338 404.037C161.662 404.073 168.985 404.122 176.309 404.122C180.435 404.122 184.56 404.146 188.674 403.878C189.32 403.842 189.333 402.929 188.674 402.88Z" fill="#969696"/>
<path d="M160.612 410.05C153.374 409.673 146.075 409.953 138.837 409.977C131.648 410.001 124.434 409.977 117.245 410.233C113.132 410.379 108.994 410.33 104.88 410.342C104.465 410.342 104.465 410.987 104.88 410.987C119.344 411.06 133.796 411.328 148.26 411.389C152.386 411.401 156.511 411.499 160.625 411.28C161.406 411.243 161.406 410.099 160.612 410.05Z" fill="#969696"/>
<path d="M234.226 254.516C227.244 253.969 220.067 254.395 213.061 254.395C206.445 254.395 199.83 254.407 193.226 254.407C179.776 254.419 166.337 254.419 152.886 254.431C139.435 254.443 125.996 254.468 112.546 254.529C98.9482 254.589 85.0946 254.017 71.5461 255.186C68.58 255.442 68.5678 259.471 71.5461 259.739C85.0946 260.908 98.9482 260.336 112.546 260.396C125.996 260.457 139.435 260.482 152.886 260.494C166.337 260.506 179.776 260.506 193.226 260.518C199.842 260.518 206.458 260.53 213.061 260.53C220.067 260.53 227.232 260.956 234.226 260.409C238.071 260.092 238.083 254.821 234.226 254.516Z" fill="black"/>
<path d="M201.673 271.499C199.439 269.734 197.669 270.05 194.838 270.05C192.201 270.05 189.565 270.05 186.928 270.05L170.45 270.062C159.245 270.074 148.04 270.074 136.835 270.087L103.879 270.111C98.1671 270.111 92.4548 270.172 86.7424 270.245C82.0065 270.306 75.6594 269.393 71.3629 271.548C70.2278 272.12 70.2278 273.934 71.3629 274.506C75.6716 276.673 81.9943 275.748 86.7424 275.808C92.2351 275.881 97.7277 275.93 103.22 275.942C114.425 275.954 125.63 275.954 136.835 275.967L169.791 275.991C175.504 275.991 181.216 276.003 186.928 276.003C189.565 276.003 192.201 276.003 194.838 276.003C197.596 276.003 199.464 276.295 201.673 274.554C202.54 273.885 202.527 272.181 201.673 271.499Z" fill="black"/>
<path d="M150.75 364.763C148.834 364.228 147.308 362.097 146.527 360.332C145.697 358.445 145.856 355.974 147.443 354.659C148.456 353.819 149.859 353.6 151.178 353.734C155.266 354.184 158.416 357.848 159.539 361.805C160.661 365.749 160.185 369.962 159.709 374.04C159.355 377.022 159.001 380.005 158.647 382.988C157.964 388.782 158.733 394.845 158.733 400.688C158.733 401.419 158.757 402.174 159.111 402.807C159.77 403.975 161.26 404.304 162.59 404.511C168.974 405.534 175.54 406.763 182.034 406.532C187.246 406.349 190.224 404.803 194.972 408.48C197.572 410.488 199.562 413.617 199.232 416.88C199.049 418.633 198.219 420.276 197.096 421.652C192.665 427.045 184.756 427.775 177.762 427.605C169.511 427.398 161.272 426.522 153.155 424.988C144.916 423.417 139.167 419.302 138.471 410.598C137.812 402.356 140.388 394.127 142.633 386.299C144.721 379.019 148.797 372.311 150.665 365.092C150.701 364.958 150.726 364.861 150.75 364.763Z" fill="#FBC2AA"/>
<path d="M197.011 412.692C196.95 412.326 196.889 411.961 196.828 411.608C196.303 407.993 195.803 403.476 199.745 402.344C202.345 401.589 206.898 401.93 208.631 399.52C209.192 398.74 209.351 397.766 209.485 396.829C209.693 395.49 209.888 394.139 210.096 392.8C202.54 394.09 199.391 387.346 198.439 381.04C197.463 374.6 197.67 366.565 203.358 362.255C206.983 359.504 212.061 358.846 216.321 360.453C220.58 362.06 223.913 365.834 225.121 370.217C226.012 373.455 224.95 374.636 224.767 377.984C224.547 381.77 224.889 388.307 224.682 392.093C224.535 394.638 224.755 397.608 226.146 399.824C226.781 400.834 227.55 401.699 228.624 402.246C229.405 402.648 231.431 402.429 231.92 402.965C234.69 405.996 237.278 409.21 240.281 411.998C233.189 414.968 225.78 417.086 218.2 418.377C212.891 419.29 202.15 422.419 198.488 416.782C197.682 415.54 197.279 414.128 197.011 412.692Z" fill="#FBC2AA"/>
<path d="M259.822 430.527C259.065 421.189 254.866 411.621 246.334 406.946C243.198 405.229 239.743 404.194 236.277 403.379C234.495 402.953 232.688 402.588 230.906 402.186C228.904 401.735 228.502 402.21 227.135 403.708C224.315 406.824 219.86 408.212 215.673 407.774C213.025 407.506 210.474 406.544 208.203 405.181C205.738 403.695 204.871 401.869 201.746 402.04C192.287 402.575 182.839 403.428 173.429 404.596C174.124 412.777 174.674 424.367 176.383 432.389C181.363 431.89 192.372 430.794 192.36 432.304C192.348 434.605 192.397 436.918 192.47 439.219C192.629 443.711 192.909 448.203 193.092 452.695C193.288 457.468 193.642 462.24 194.069 466.988C194.557 472.405 195.387 477.725 196.595 482.984C208.899 487.074 222.936 486.076 236.13 484.883C239.89 484.542 243.796 484.165 247.055 482.254C256.209 476.873 256.6 460.949 257.906 451.685C258.919 444.551 260.408 437.843 259.822 430.527Z" fill="#FF6652"/>
<path d="M165.434 523.572C165.593 523.34 165.764 523.109 165.934 522.89C169.12 518.812 174.625 516.158 179.129 513.759C184.097 511.118 189.65 508.939 195.375 509.267C200.538 509.559 207.703 513.053 208.777 518.507C208.899 519.128 208.948 519.786 208.704 520.358C208.094 521.794 206.153 521.916 204.59 521.928C197.926 521.989 191.518 524.034 185.293 526.238C182.095 527.37 178.909 528.575 175.663 529.61C172.77 530.535 165.739 534.589 163.713 530.377C162.602 528.076 164.152 525.446 165.434 523.572Z" fill="black"/>
<path d="M136.543 468.814C139.24 465.843 143.073 463.92 147.003 463.177C152.52 462.142 158.22 463.141 163.64 464.638C175.113 467.791 185.867 473.099 197.389 476.057C202.503 477.372 205.836 476.885 210.828 476.483C217.163 475.972 223.668 476.593 230.04 476.215C235.996 475.862 242.441 475.4 248.019 477.043C248.751 476.556 249.484 476.081 250.216 475.594C256.441 471.516 262.654 467.462 270.466 468.947C276.605 470.116 282.537 473.221 286.333 478.261C290.373 483.617 289.165 490.617 285.54 495.961C282.537 500.381 278.107 503.643 273.517 506.382C257.686 515.854 240.39 521.66 221.703 520.37C219.201 520.2 216.259 520.163 214.453 522.172C213.782 522.927 213.379 527.054 211.877 526.871C210.022 526.652 206.458 526.14 204.713 525.507C195.265 522.111 185.83 518.702 176.383 515.306C168.083 512.311 159.734 509.304 152.178 504.763C145.636 500.843 139.716 495.535 136.25 488.657C133.748 483.702 131.697 477.177 134.309 472.027C134.919 470.847 135.664 469.775 136.543 468.814Z" fill="#9C4DF4"/>
<path d="M253.731 483.057C248.422 485.699 242.868 487.391 237.778 490.532C232.701 493.661 227.892 497.313 222.362 499.687C218.786 501.221 213.586 501.817 210.156 503.521" stroke="black" stroke-width="0.5" stroke-miterlimit="10"/>
<path d="M214.575 521.454C214.587 521.441 214.587 521.417 214.599 521.405C215.1 520.261 215.588 519.116 216.088 517.972C217.077 515.695 218.066 513.431 219.042 511.155C219.152 510.899 227.635 515.196 228.368 515.793C228.697 516.061 229.014 516.353 229.222 516.718C229.515 517.217 229.576 517.814 229.649 518.386C229.845 519.993 230.089 521.636 229.783 523.231C229.478 524.826 228.49 526.396 226.952 526.908C225.78 527.297 224.511 527.017 223.314 526.749C221.032 526.226 218.798 525.739 216.552 525.081C215.905 524.887 214.209 524.826 213.745 524.363C213.159 523.791 214.319 522.062 214.575 521.454Z" fill="#FBC2AA"/>
<path d="M224.023 512.895C224.645 512.98 225.292 513.005 225.963 512.944C227.33 512.834 228.673 512.445 230.04 512.469C232.762 512.518 233.946 514.636 235.081 516.779C237.083 520.565 240.696 523.328 243.625 526.372C247.299 530.182 249.423 533.773 248.825 539.227C248.617 541.151 247.836 543.354 245.969 543.878C244.248 544.365 242.551 543.16 241.172 542.027C237.425 538.96 233.665 535.904 229.918 532.836C228.209 531.436 226.464 529.573 224.523 528.526C223.29 527.869 221.886 527.382 220.605 526.737C221.984 522.184 223.144 517.57 224.023 512.895Z" fill="black"/>
<path d="M204.871 485.541C204.188 485.2 203.663 484.579 203.26 483.422C202.577 481.475 202.979 479.174 204.078 477.457C205.494 475.242 208.094 473.537 210.669 473.002C213.318 472.442 215.881 471.504 218.578 470.956C220.519 470.567 222.423 470.031 224.327 469.496C230.15 467.864 236.423 466.622 241.953 464.188C242.295 464.042 242.636 463.871 242.832 463.555C243.088 463.129 242.978 462.593 242.856 462.106C241.001 454.668 239.304 447.193 237.754 439.682C237.229 437.125 236.716 434.544 236.741 431.939C236.79 427.203 238.694 422.516 241.965 419.083C243.967 416.977 246.737 415.285 249.618 415.614C251.986 415.894 254.024 417.525 255.367 419.509C256.71 421.494 257.43 423.795 258.15 426.059C260.567 433.716 263.374 441.471 264.46 449.433C264.741 451.515 264.729 453.621 264.717 455.715C264.68 461.741 264.521 468.144 261.201 473.172C250.265 489.68 224.901 487.647 207.898 486.064C206.629 485.979 205.652 485.93 204.871 485.541Z" fill="#FBC2AA"/>
<path d="M209.68 357.313C206.604 357.775 203.65 359.017 201.173 361.038C198.414 363.29 197.547 365.676 196.974 369.207C196.937 369.438 196.913 369.693 197.047 369.888C197.194 370.095 197.486 370.144 197.743 370.18C202.137 370.704 206.555 371.081 210.986 371.313C211.474 371.337 211.975 371.361 212.426 371.179C213.549 370.728 213.989 369.207 215.136 368.817C215.295 370.29 215.185 371.8 214.831 373.236C214.672 373.869 214.465 374.539 214.672 375.16C215.087 376.413 216.564 376.389 217.516 376.961C218.7 377.667 219.848 379.104 220.299 380.394C220.897 382.099 221.166 383.961 222.216 385.471C222.484 385.86 222.801 386.213 223.107 386.566C223.68 387.224 224.242 387.881 224.815 388.539C225.169 388.271 225.34 387.845 225.487 387.443C226.683 384.229 227.952 381.04 228.709 377.704C229.393 374.709 229.368 371.52 228.587 368.549C228.245 367.21 227.623 365.859 227 364.629C226.659 363.947 226.207 363.229 225.767 362.596C225.633 362.401 224.315 360.685 224.083 360.831C224.376 360.636 224.742 360.271 224.608 359.881C224.449 359.419 223.375 359.747 223.082 359.906C223.253 359.638 223.497 359.407 223.668 359.139C223.839 358.871 223.949 358.518 223.815 358.226C223.729 358.043 223.558 357.909 223.375 357.812C222.899 357.58 222.325 357.641 221.874 357.897C221.398 358.165 220.995 358.652 220.885 359.175C217.272 357.593 213.671 356.716 209.68 357.313Z" fill="black"/>
<path d="M162.26 473.878C172.892 478.674 181.448 487.001 191.115 493.502C200.147 499.565 210.156 504.021 220.104 508.452C219.579 509.584 219.372 510.716 218.859 511.848" stroke="black" stroke-width="0.5" stroke-miterlimit="10"/>
<path d="M207.667 383.389C207.032 385.459 204.493 386.713 202.467 385.97" stroke="#1C1C1B" stroke-width="0.5" stroke-miterlimit="10"/>
<path d="M218.395 382.78C222.313 383.754 224.755 379.64 223.558 376.949C221.898 373.212 216.65 373.833 215.686 377.765" fill="#FBC2AA"/>
<path d="M220.397 376.645C219.665 376.438 218.81 376.56 218.188 376.961C217.565 377.363 217.211 378.021 217.236 378.666" stroke="#1C1C1B" stroke-width="0.5" stroke-miterlimit="10"/>
<path d="M249.569 410.988C242.416 411.742 235.862 416.697 233.213 423.381C230.467 430.32 231.834 438.111 233.238 445.44C237.851 445.306 241.928 445.622 246.517 444.722C252.474 443.553 258.26 441.715 263.862 439.45C262.202 428.847 259.126 418.682 251.534 411.036C250.802 410.282 250.619 410.878 249.569 410.988Z" fill="#FF6652"/>
<path d="M168.925 342.412C162.993 345.005 157.622 348.353 152.532 352.346C150.067 354.281 147.736 356.46 145.539 358.688C144.367 359.881 143.256 361.147 142.157 362.401C141.926 361.707 141.694 361.026 141.462 360.344C140.717 358.128 139.875 355.974 138.947 353.831C138.081 351.798 137.129 349.801 136.103 347.841C135.029 345.784 133.992 343.033 131.795 341.998C130.281 341.28 128.926 342.18 128.719 343.763C128.414 346.1 130.269 348.267 131.319 350.24C132.356 352.2 133.32 354.184 134.199 356.217C135.005 358.055 135.749 359.991 136.421 361.914C137.153 363.996 137.666 366.175 138.435 368.233C139.191 370.254 141.828 370.753 143.061 368.829C144.66 366.321 146.906 364.045 148.944 361.878C151.031 359.662 153.216 357.568 155.45 355.499C159.954 351.323 164.751 347.403 169.718 343.787C170.561 343.179 169.865 341.998 168.925 342.412Z" fill="#9C4DF4"/>
<path d="M238.156 491.372H177.896C177.017 491.372 176.297 490.653 176.297 489.777C176.297 488.9 177.017 488.182 177.896 488.182H238.156C239.035 488.182 239.755 488.9 239.755 489.777C239.755 490.653 239.035 491.372 238.156 491.372Z" fill="black"/>
<path d="M229.221 489.205H176.48L165.531 462.227C165.177 461.351 165.824 460.389 166.776 460.389H216.625C217.174 460.389 217.662 460.718 217.87 461.229L229.221 489.205Z" fill="black"/>
<path d="M191.823 474.815C192.384 476.276 194.276 477.457 196.046 477.457C197.816 477.457 198.805 476.276 198.243 474.815C197.682 473.354 195.79 472.173 194.02 472.173C192.25 472.173 191.261 473.354 191.823 474.815Z" stroke="white" stroke-width="0.5" stroke-miterlimit="10"/>
<path d="M209.705 392.641C209.802 393.652 209.717 394.662 209.619 395.66C209.68 395.648 209.754 395.624 209.815 395.612C211.89 394.966 213.598 393.286 214.477 391.302C213.025 392.105 211.377 392.556 209.705 392.641Z" fill="black"/>
<path d="M150.848 364.921C148.565 363.363 146.259 361.793 144.416 359.747C144.037 359.333 143.683 358.871 143.586 358.323C143.488 357.775 143.769 357.13 144.306 356.984C144.904 356.826 145.453 357.325 145.917 357.751C147.662 359.37 149.969 360.405 152.349 360.624" fill="white"/>
<path d="M150.848 364.921C148.565 363.363 146.259 361.793 144.416 359.747C144.037 359.333 143.683 358.871 143.586 358.323C143.488 357.775 143.769 357.13 144.306 356.984C144.904 356.826 145.453 357.325 145.917 357.751C147.662 359.37 149.969 360.405 152.349 360.624" stroke="#1C1C1B" stroke-width="0.5" stroke-miterlimit="10"/>
<path d="M230.479 533.907C230.577 533.847 230.674 533.774 230.772 533.7C230.882 533.615 231.004 533.567 231.126 533.506C231.37 533.396 231.602 533.287 231.846 533.189C231.749 533.238 231.639 533.274 231.541 533.323C231.993 533.128 232.432 532.885 232.823 532.593C232.92 532.52 233.006 532.447 233.103 532.361C233.262 532.215 233.421 532.081 233.64 532.02C234.031 531.899 234.519 532.094 234.727 532.447C234.91 532.763 234.898 533.116 234.739 533.433C234.702 533.506 234.654 533.567 234.617 533.64C234.532 533.773 234.446 533.907 234.348 534.029C234.104 534.358 233.848 534.674 233.555 534.954C233.262 535.247 232.945 535.514 232.591 535.721C232.371 535.855 232.139 536.001 231.883 536.05C231.627 536.111 231.358 536.135 231.102 536.16C230.992 536.147 230.882 536.135 230.784 536.111C230.626 536.074 230.491 536.001 230.369 535.892C230.174 535.733 229.991 535.514 229.93 535.259C229.796 534.723 230.015 534.212 230.479 533.907Z" fill="#FF6652"/>
<path d="M227.562 530.56C227.623 530.353 227.733 530.17 227.879 530.012C228.148 529.708 228.429 529.403 228.697 529.087C228.819 528.953 228.954 528.868 229.124 528.819C229.283 528.734 229.454 528.697 229.637 528.709C229.82 528.697 229.991 528.746 230.15 528.819C230.308 528.868 230.455 528.965 230.577 529.087C230.65 529.172 230.711 529.269 230.784 529.355C230.907 529.561 230.968 529.781 230.968 530.012C230.955 530.134 230.931 530.243 230.919 530.365C230.858 530.584 230.748 530.779 230.577 530.949C230.272 531.229 229.967 531.497 229.649 531.765C229.539 531.887 229.405 531.972 229.246 532.021C229.1 532.094 228.941 532.13 228.77 532.13C228.6 532.142 228.441 532.106 228.294 532.021C228.136 531.972 228.002 531.887 227.892 531.765C227.831 531.68 227.757 531.595 227.696 531.509C227.587 531.315 227.525 531.108 227.525 530.876C227.525 530.779 227.538 530.669 227.562 530.56Z" fill="#FF6652"/>
<path d="M223.949 527.382C224.145 527.09 224.34 526.798 224.535 526.506C224.608 526.372 224.718 526.25 224.84 526.177C224.95 526.067 225.097 526.006 225.243 525.958C225.402 525.909 225.56 525.897 225.719 525.933C225.878 525.946 226.024 525.982 226.158 526.079C226.244 526.14 226.317 526.201 226.403 526.262C226.549 526.408 226.659 526.591 226.708 526.786C226.72 526.895 226.732 526.992 226.757 527.102C226.757 527.321 226.696 527.516 226.598 527.699C226.403 527.991 226.207 528.283 226.012 528.575C225.939 528.709 225.829 528.831 225.707 528.904C225.597 529.013 225.451 529.074 225.304 529.123C225.145 529.172 224.987 529.184 224.828 529.147C224.669 529.135 224.523 529.099 224.389 529.001C224.303 528.94 224.23 528.879 224.145 528.819C223.998 528.672 223.888 528.49 223.839 528.295C223.827 528.186 223.815 528.088 223.803 527.979C223.778 527.772 223.839 527.565 223.949 527.382Z" fill="#FF6652"/>
<path d="M181.485 524.57C181.558 524.314 181.753 524.047 181.985 523.925C182.241 523.791 182.547 523.73 182.827 523.815C182.913 523.852 182.998 523.888 183.084 523.925C183.242 524.022 183.377 524.156 183.474 524.314C183.657 524.558 183.853 524.801 184.036 525.045C184.133 525.166 184.243 525.276 184.341 525.386C184.39 525.434 184.438 525.483 184.475 525.532C184.561 525.617 184.646 525.714 184.707 525.824C184.768 525.921 184.817 526.055 184.853 526.165C184.939 526.433 185.012 526.7 185.098 526.968C185.195 527.297 185.061 527.65 184.792 527.857C184.536 528.052 184.145 528.1 183.853 527.918C183.657 527.796 183.474 527.674 183.279 527.553C183.23 527.516 183.181 527.492 183.132 527.455C182.937 527.321 182.778 527.175 182.656 526.968C182.583 526.859 182.522 526.749 182.449 526.64C182.193 526.213 181.875 525.824 181.582 525.422C181.436 525.191 181.424 524.813 181.485 524.57Z" fill="#FF6652"/>
<path d="M186.148 522.975C186.221 522.719 186.416 522.452 186.648 522.33C187.026 522.123 187.502 521.965 187.771 522.379C188.198 523.048 188.625 523.718 189.065 524.387C189.407 524.923 189.76 525.544 189.553 526.14C189.492 526.335 189.358 526.518 189.162 526.615C188.894 526.737 188.577 526.652 188.308 526.506C187.844 526.25 187.588 525.799 187.307 525.361C187.234 525.252 187.173 525.142 187.1 525.033C186.843 524.606 186.526 524.217 186.233 523.815C186.099 523.596 186.074 523.219 186.148 522.975Z" fill="#FF6652"/>
<path d="M177.2 526.396C177.249 526.238 177.347 526.092 177.469 525.982C177.713 525.751 178.043 525.593 178.384 525.605C178.714 525.617 179.08 525.727 179.3 525.982C179.788 526.567 180.276 527.139 180.752 527.723C180.874 527.845 180.972 527.979 181.021 528.137C181.106 528.295 181.143 528.454 181.131 528.636C181.143 528.819 181.094 528.977 181.021 529.135C180.972 529.294 180.874 529.44 180.752 529.549C180.508 529.781 180.179 529.939 179.837 529.927C179.507 529.914 179.141 529.805 178.921 529.549C178.433 528.965 177.945 528.393 177.469 527.808C177.347 527.687 177.249 527.553 177.2 527.394C177.115 527.236 177.078 527.078 177.091 526.895C177.078 526.713 177.115 526.554 177.2 526.396Z" fill="#FF6652"/>
<path d="M284.295 484.067C283.734 485.187 284.027 486.587 283.49 487.72C283.099 488.56 282.318 489.144 281.781 489.911C280.951 491.104 280.817 492.784 281.61 494.001C282.391 495.219 284.112 495.791 285.418 495.146C286.456 494.634 287.054 493.514 287.469 492.431C288.323 490.191 289.226 486.685 288.494 484.299C287.884 482.363 285.345 481.949 284.295 484.067Z" fill="black"/>
<path d="M134.663 475.728C135.603 474.974 136.994 474.791 138.081 475.351C139.155 475.911 139.826 477.189 139.594 478.37C139.472 479.015 139.106 479.624 139.082 480.281C139.045 481.121 139.558 481.888 139.826 482.692C140.229 483.885 140.058 485.297 139.216 486.222C138.374 487.16 136.848 487.464 135.798 486.782C134.687 486.052 134.407 484.579 134.199 483.264C133.833 480.902 132.38 477.554 134.663 475.728Z" fill="black"/>
<path d="M194.435 429.589C194.325 429.48 194.105 429.455 193.996 429.589C193.703 429.955 193.385 430.32 193.117 430.697C192.982 430.88 192.848 431.062 192.714 431.245C192.58 431.428 192.421 431.61 192.299 431.817C192.152 432.061 192.482 432.304 192.69 432.109C192.848 431.951 192.995 431.768 193.141 431.598C193.288 431.428 193.434 431.257 193.581 431.087C193.886 430.746 194.154 430.381 194.435 430.028C194.533 429.894 194.557 429.723 194.435 429.589Z" fill="black"/>
<path d="M240.183 445.208C239.255 445.22 238.352 445.403 237.485 445.719C237.217 443.881 236.948 442.055 236.667 440.217C236.374 438.281 236.02 436.346 235.752 434.398C235.74 434.3 235.569 434.325 235.581 434.422C235.801 436.406 235.935 438.391 236.167 440.375C236.399 442.323 236.655 444.271 236.924 446.219C236.948 446.377 237.168 446.486 237.302 446.438C238.218 446.06 239.17 445.866 240.17 445.841C240.598 445.829 240.598 445.208 240.183 445.208Z" fill="black"/>
<path d="M107.212 507.721C105.467 510.96 101.756 512.53 98.3506 513.321C97.3253 513.565 96.2878 513.747 95.2503 513.942C94.4325 514.088 93.5659 514.186 92.7847 514.49C91.0026 515.172 92.9556 516.267 93.8588 516.669C94.3959 516.913 94.5302 517.692 94.2494 518.167C93.9199 518.702 93.2974 518.8 92.7481 518.556C92.0036 518.215 91.1858 517.716 90.6121 517.071L89.4525 520.967H71.9493L70.5822 496.278L96.9714 495.84L96.2756 498.165C99.1928 497.325 102.781 497.008 105.393 498.761C108.347 500.758 108.835 504.69 107.212 507.721ZM104.209 500.758C101.78 499.054 98.2285 499.699 95.6165 500.551C95.5921 500.563 95.5677 500.575 95.5432 500.575L91.9914 512.445C92.6017 512.214 93.273 512.055 93.871 511.934C97.2887 511.24 101.158 510.753 103.807 508.245C105.796 506.37 106.87 502.633 104.209 500.758Z" fill="#9C4DF4"/>
<path d="M91.9058 501.951C91.3566 503.874 90.8073 505.786 90.3313 507.721C90.2337 508.111 90.8073 508.257 90.9294 507.88C91.5519 505.98 92.1011 504.057 92.6504 502.146C92.7846 501.683 92.0401 501.488 91.9058 501.951Z" fill="black"/>
<path d="M89.4282 511.203C89.1475 512.165 88.8667 513.115 88.586 514.076C88.3053 515.038 88.0978 516.012 87.8537 516.974C87.756 517.375 88.3419 517.534 88.464 517.144C88.7691 516.195 89.1109 515.245 89.3794 514.295L90.185 511.41C90.3193 510.923 89.5625 510.716 89.4282 511.203Z" fill="black"/>
<path d="M88.4152 508.44C88.3175 508.415 88.1832 508.464 88.1588 508.586C88.0856 509 88.0246 509.414 87.9513 509.815C87.9391 509.925 87.9758 510.047 88.0978 510.071C88.1955 510.095 88.3298 510.047 88.3542 509.925C88.4274 509.511 88.4884 509.097 88.5616 508.695C88.5739 508.586 88.525 508.464 88.4152 508.44Z" fill="black"/>
<path d="M260.628 466.646C260.469 468.911 259.419 471.017 257.869 472.648C257.686 472.843 257.967 473.111 258.162 472.94C259.932 471.346 260.908 469.02 260.982 466.646C260.982 466.415 260.64 466.427 260.628 466.646Z" fill="black"/>
<path d="M145.831 416.916C144.891 416.49 143.951 416.052 143.012 415.638C142.816 415.553 142.633 415.845 142.841 415.93C143.781 416.368 144.72 416.782 145.66 417.208C145.856 417.294 146.039 417.001 145.831 416.916Z" fill="black"/>
<path d="M83.8865 445.123C81.4331 448.215 78.4427 450.845 75.794 453.767C72.9866 456.859 70.8262 460.474 68.0189 463.567C65.5777 466.269 62.6605 468.546 59.4625 470.287C57.2044 471.516 51.9437 474.474 49.2584 473.817C44.0587 472.527 47.9524 463.798 49.588 460.925C51.5409 457.48 54.2872 454.497 57.1922 451.831C60.2315 449.055 63.5271 446.584 66.7983 444.1C70.4722 441.3 74.134 438.513 77.808 435.713C78.699 435.043 79.5657 434.337 80.4811 433.692C81.2379 433.156 82.0679 432.718 82.9955 432.608C84.5945 432.438 86.047 433.485 86.816 434.824C88.8299 438.342 86.0347 442.42 83.8865 445.123Z" fill="#9C4DF4"/>
<path d="M28.2521 450.711C28.9966 446.718 30.62 442.944 31.5477 439C32.7805 433.765 32.7805 428.323 33.7447 423.04C34.709 417.756 36.8817 412.339 41.2758 409.247C42.4964 408.395 43.8878 407.725 45.3647 407.615C48.0378 407.408 50.5889 409.064 52.1024 411.28C53.6037 413.483 54.2262 416.174 54.5924 418.828C56.0449 429.261 53.9943 440.156 48.8312 449.348C47.2201 452.221 45.3159 454.923 43.9122 457.894C42.0447 461.826 41.0683 466.16 40.873 470.506C40.7875 472.393 40.8241 474.365 39.9941 476.069C39.2007 477.725 36.2958 480.245 34.294 479.186C32.5119 478.236 31.2792 472.648 30.6445 470.847C28.4108 464.419 26.9827 457.504 28.2521 450.711Z" fill="#9C4DF4"/>
<path d="M10.7489 450.638C10.3827 448.69 10.0775 446.45 11.3592 444.94C13.129 442.847 16.6931 443.711 18.6095 445.671C20.8187 447.923 21.7341 451.149 22.0149 454.29C22.2956 457.431 22.0393 460.596 22.2834 463.725C22.6618 468.533 24.2242 473.147 25.2372 477.859C26.1649 482.144 24.4073 485.066 21.2215 480.829C19.0611 477.968 17.4377 474.657 16.1073 471.346C13.4586 464.699 12.0793 457.626 10.7489 450.638Z" fill="#9C4DF4"/>
<path d="M70.4845 447.655C69.5203 449.408 68.434 451.052 67.1401 452.574C65.8463 454.083 64.4182 455.483 62.9535 456.834C60.0118 459.537 56.8383 461.996 54.0432 464.857C52.7005 466.233 51.4433 467.694 50.3692 469.288C49.112 471.151 48.1843 473.184 47.4764 475.314C46.6342 477.834 45.9995 480.427 45.3038 482.996C44.5714 485.674 43.8391 488.365 43.1067 491.043C42.3134 493.965 41.52 496.874 40.8853 499.833C40.5801 501.269 40.3116 502.718 40.0918 504.179C39.9942 504.86 39.921 505.554 39.8477 506.248C39.8111 506.626 39.7867 506.991 39.7623 507.368C39.7501 507.514 39.7501 507.66 39.7501 507.807C39.7867 507.466 39.8478 507.125 39.8844 506.808C39.982 506.041 40.0919 505.274 40.214 504.507C40.4215 503.205 40.6778 501.914 40.9585 500.636C41.5322 498.055 42.2401 495.523 42.9481 492.979C44.4006 487.756 45.7798 482.509 47.3177 477.323C48.0135 474.986 48.8435 472.685 50.1129 470.579C51.126 468.911 52.3466 467.389 53.677 465.965C56.3989 463.067 59.5236 460.596 62.5263 457.991C65.7975 455.142 69.2151 452.001 71.1436 448.045C71.3511 447.594 70.7287 447.217 70.4845 447.655Z" fill="#1C1C1B"/>
<path d="M39.7136 508.403C39.738 508.208 39.738 508.001 39.7502 507.794C39.7136 508.001 39.7014 508.208 39.7136 508.403Z" fill="#1C1C1B"/>
<path d="M39.7258 508.768C39.7136 508.647 39.7136 508.525 39.7136 508.403C39.7014 508.525 39.677 508.647 39.6526 508.756C39.6281 508.817 39.7258 508.817 39.7258 508.768Z" fill="#1C1C1B"/>
<path d="M38.1632 456.068C38.5172 451.405 39.3473 446.767 40.9584 442.36C41.0073 442.226 40.7998 442.165 40.751 442.299C37.7849 450.09 37.3455 458.478 37.4431 466.732C37.492 470.981 37.675 475.229 37.7116 479.478C37.7605 483.885 37.6018 488.28 37.2234 492.662C36.8206 497.301 36.2348 501.915 35.6245 506.528C30.5346 495.779 25.8841 484.822 21.7585 473.671C20.5501 470.396 19.3784 467.097 18.2554 463.786C18.109 463.36 17.4376 463.542 17.5719 463.968C21.5266 475.704 26.0306 487.257 31.0838 498.567C32.5119 501.756 33.9766 504.921 35.5024 508.075C35.6855 508.464 36.1859 508.208 36.2225 507.88C37.3577 499.005 38.4196 490.118 38.3586 481.158C38.2975 472.819 37.5285 464.443 38.1632 456.068Z" fill="#1C1C1B"/>
<path d="M21.429 494.294C23.382 503.266 24.7124 512.664 23.3087 521.697C26.4578 521.709 42.3377 521.795 47.452 521.746C47.3909 520.955 47.3299 520.175 47.2933 519.384C47.0003 513.784 47.3665 508.148 49.0387 502.767C49.4415 501.464 50.2837 497.228 50.8208 495.962L50.7231 494.294H21.429Z" fill="#FF6652"/>
<path d="M51.9438 489.315L20.538 489.363C20.2695 489.363 20.0133 489.388 19.7569 489.436V496.68C20.0133 496.729 20.2695 496.753 20.538 496.753L51.2847 496.692L51.9438 489.315Z" fill="#1A0400"/>
<path d="M46.2437 500.308C45.8043 500.819 45.4625 501.464 45.1574 502.061C44.8522 502.657 44.5959 503.29 44.3517 503.923C43.8635 505.226 43.5706 506.541 43.4363 507.916C43.3875 508.489 44.3518 508.635 44.4616 508.05C44.6935 506.784 44.9986 505.506 45.4136 504.276C45.6211 503.668 45.8653 503.071 46.1338 502.475C46.3901 501.89 46.7197 501.318 46.9638 500.722C47.1225 500.332 46.5122 499.991 46.2437 500.308Z" fill="#1C1C1B"/>
<path d="M44.0221 511.544C44.0343 511.13 43.3874 511.13 43.3752 511.544C43.3019 513.638 42.8992 515.707 42.9602 517.813C42.9846 518.483 43.9122 518.446 43.9733 517.813C44.2052 515.72 43.9489 513.638 44.0221 511.544Z" fill="#1C1C1B"/>
<path d="M41.9838 519.908C39.8111 519.555 37.5775 519.445 35.3926 519.713C34.6603 519.798 34.7945 520.809 35.5269 520.711C37.6385 520.431 39.7746 520.37 41.8862 520.614C42.289 520.662 42.3866 519.969 41.9838 519.908Z" fill="#1C1C1B"/>
<path d="M297.575 428.299C295.378 429.273 292.619 431.087 292.29 433.68C292.192 434.447 290.996 434.788 290.813 433.875C290.532 432.487 289.909 431.221 288.884 430.222C287.822 429.176 286.394 428.725 285.247 427.788C284.893 427.496 285.088 426.826 285.528 426.741C287.773 426.302 290.19 425.073 291.191 422.979C291.081 422.602 290.996 422.2 290.959 421.786C290.91 421.226 291.423 420.763 291.936 420.678C292.509 420.593 292.985 420.958 293.168 421.482C293.657 422.906 294.352 424.16 295.219 425.329C295.951 425.962 296.781 426.509 297.563 427.045C297.965 427.337 298.112 428.068 297.575 428.299Z" fill="#D9E0FC"/>
<path d="M305.948 442.567C305.423 442.056 304.862 441.569 304.312 441.094C304.605 440.948 304.911 440.789 305.204 440.631C305.594 440.412 305.753 439.852 305.509 439.475C305.24 439.049 304.788 438.988 304.349 439.17C304.215 439.231 304.081 439.292 303.959 439.353C304.117 438.379 304.288 437.393 304.508 436.419C304.679 435.652 303.519 435.323 303.324 436.09C303.043 437.21 302.726 438.33 302.421 439.438C301.896 438.988 301.371 438.525 300.846 438.075C300.565 437.831 300.15 437.807 299.882 438.075C299.613 438.342 299.625 438.769 299.882 439.036C300.382 439.572 300.883 440.108 301.371 440.656C301.127 440.789 300.87 440.923 300.639 441.082C300.248 441.325 299.821 441.52 299.406 441.727C299.04 441.909 298.93 442.433 299.125 442.774C299.345 443.151 299.796 443.236 300.175 443.042C300.553 442.847 300.944 442.628 301.334 442.482C301.456 442.433 301.566 442.384 301.676 442.336C301.615 442.579 301.554 442.823 301.505 443.054C301.31 443.869 301.017 444.709 300.98 445.549C300.931 446.73 302.677 446.913 303.006 445.817C303.226 445.063 303.226 444.235 303.324 443.456C303.348 443.261 303.385 443.066 303.409 442.859C303.763 443.236 304.129 443.614 304.508 443.991C304.886 444.356 305.57 444.405 305.948 443.991C306.314 443.602 306.351 442.956 305.948 442.567Z" fill="#D9E0FC"/>
<path d="M30.2662 275.65C28.6672 274.944 27.4832 273.678 26.8607 272.059C26.641 271.475 25.8477 271.438 25.6402 272.059C25.3716 272.85 24.9078 273.556 24.3829 274.189C24.3585 274.226 24.3341 274.262 24.3097 274.287C23.8337 274.689 23.2844 275.029 22.6863 275.224C22.2957 275.346 22.2713 275.93 22.6863 276.04C23.5041 276.259 24.212 276.588 24.8101 277.196C25.3838 277.793 25.75 278.523 25.8842 279.327C25.9941 279.984 26.995 279.704 26.8973 279.047C26.7875 278.353 27.5198 277.842 28.0447 277.562C28.7648 277.172 29.5338 276.843 30.2906 276.502C30.5957 276.369 30.5957 275.796 30.2662 275.65Z" fill="#D9E0FC"/>
<path d="M22.0391 258.716C22.4175 258.875 22.9058 259.203 22.7349 259.569C22.6372 259.776 22.3931 259.849 22.1734 259.909C19.8787 260.469 15.6433 261.346 15.7897 264.536C15.8142 265.217 14.7888 265.327 14.618 264.694C14.0199 262.356 12.5918 260.238 10.4191 259.118C9.93089 258.863 10.1994 258.193 10.6755 258.156C11.8961 258.071 13.0556 257.572 13.9832 256.793C15.094 255.868 15.3747 255.344 15.6554 253.981C15.7653 253.433 16.0827 252.861 16.632 252.727C16.7296 252.703 16.8517 252.69 16.9493 252.739C17.1446 252.812 17.23 253.043 17.291 253.238C18.0478 255.429 19.5125 257.45 21.5631 258.509C21.734 258.57 21.8805 258.643 22.0391 258.716Z" fill="#D9E0FC"/>
<path d="M270.441 292.049C269.867 291.696 268.879 291.598 268.476 291.038C267.756 290.016 269.513 290.052 270.002 289.918C270.905 289.675 271.637 288.981 272.126 288.177C272.614 287.374 272.882 286.461 273.139 285.56C273.749 285.889 273.871 286.668 274.127 287.313C274.567 288.409 275.568 289.212 276.703 289.504C277.106 289.602 279.29 290.077 277.777 290.856C276.764 291.367 275.616 291.805 274.786 292.609C274.262 293.12 273.48 295.567 272.882 295.47C272.614 295.433 272.418 295.214 272.296 294.97C272.187 294.727 272.138 294.459 272.065 294.204C271.93 293.741 271.711 293.303 271.405 292.925C271.149 292.584 270.819 292.292 270.441 292.049Z" fill="#D9E0FC"/>
<path d="M13.5683 297.028C11.0417 297.843 9.63803 300.302 9.01553 302.713C8.83245 303.395 7.72169 303.261 7.77051 302.542C7.84375 301.264 7.36772 300.047 6.54992 299.073C5.57345 297.904 4.38948 297.551 3.03462 296.942C2.83933 296.857 2.60741 296.736 2.57079 296.516C2.53418 296.309 2.70506 296.115 2.87594 295.993C3.44962 295.603 4.19419 295.64 4.87772 295.506C6.51331 295.202 7.89256 293.826 8.22212 292.207C8.29536 291.866 8.31978 291.501 8.46626 291.184C8.61273 290.868 8.94228 290.6 9.29625 290.649C9.72345 290.709 9.94311 291.172 10.0896 291.574C10.3825 292.389 10.5779 293.156 11.2004 293.777C11.9449 294.52 12.8481 295.104 13.7513 295.616C14.3494 295.956 14.1786 296.833 13.5683 297.028Z" fill="#D9E0FC"/>
<path d="M9.12 72H15.08L21.6 53.12L28.08 72H34L42.32 44.52H35.92L30.84 62.96L24.76 44.52H18.36L12.28 62.96L7.2 44.52H0.8L9.12 72ZM53.3747 67.32C50.9347 67.32 49.1347 65.8 48.4547 63.56H63.3747C63.3747 55.76 59.5747 50.84 53.0947 50.84C47.0547 50.84 42.4547 55.36 42.4547 61.6C42.4547 67.96 47.2547 72.48 53.4147 72.48C56.4547 72.48 60.0147 71.2 61.8547 69.28L58.1347 65.48C57.0147 66.56 55.0147 67.32 53.3747 67.32ZM53.3347 56C55.6947 56 57.2147 57.32 57.7747 59.36H48.5347C49.2947 57.28 51.1347 56 53.3347 56ZM67.3256 72H73.1656V44.04H67.3256V72ZM88.3831 72.48C91.8231 72.48 94.6231 71.08 96.6631 68.84L92.7831 65.56C91.7031 66.76 90.0231 67.56 88.4231 67.56C85.3431 67.56 82.7831 64.84 82.7831 61.6C82.7831 58.44 85.3431 55.76 88.3831 55.76C89.9831 55.76 91.6231 56.52 92.6631 57.68L96.5431 54.36C94.5431 52.2 91.7831 50.84 88.4231 50.84C82.3031 50.84 77.1031 55.76 77.1031 61.64C77.1031 67.52 82.2631 72.48 88.3831 72.48ZM109.908 72.48C116.028 72.48 121.148 67.52 121.148 61.64C121.148 55.76 116.028 50.84 109.908 50.84C103.748 50.84 98.5875 55.76 98.5875 61.64C98.5875 67.52 103.748 72.48 109.908 72.48ZM109.908 67.56C106.788 67.56 104.188 64.84 104.188 61.64C104.188 58.44 106.788 55.76 109.908 55.76C112.988 55.76 115.588 58.44 115.588 61.64C115.588 64.84 112.988 67.56 109.908 67.56ZM149.699 50.84C146.619 50.84 144.059 52.32 142.979 54.6C141.699 52.28 139.259 50.84 136.419 50.84C133.859 50.84 131.819 52.08 130.819 54.04V51.32H124.979V72H130.819V59.52C130.819 57.32 132.459 55.76 134.819 55.76C136.939 55.76 138.459 57.44 138.459 59.84V72.04H144.059V59.52C144.059 57.32 145.739 55.76 148.059 55.76C150.219 55.76 151.739 57.44 151.739 59.84V72.04H157.339V58.84C157.339 54.16 154.019 50.84 149.699 50.84ZM172.008 67.32C169.568 67.32 167.768 65.8 167.088 63.56H182.008C182.008 55.76 178.208 50.84 171.728 50.84C165.688 50.84 161.088 55.36 161.088 61.6C161.088 67.96 165.888 72.48 172.048 72.48C175.088 72.48 178.648 71.2 180.488 69.28L176.768 65.48C175.648 66.56 173.648 67.32 172.008 67.32ZM171.968 56C174.328 56 175.848 57.32 176.408 59.36H167.168C167.928 57.28 169.768 56 171.968 56ZM208.01 66.88C207.61 67.28 206.81 67.56 206.01 67.56C204.93 67.56 204.05 66.6 204.05 65.24V56.04H208.53V51.32H204.05V45.64H198.45V51.32H195.61V56.04H198.45V66.16C198.45 69.88 201.01 72.48 204.65 72.48C206.33 72.48 208.21 71.76 209.41 70.68L208.01 66.88ZM223.228 72.48C229.348 72.48 234.468 67.52 234.468 61.64C234.468 55.76 229.348 50.84 223.228 50.84C217.068 50.84 211.908 55.76 211.908 61.64C211.908 67.52 217.068 72.48 223.228 72.48ZM223.228 67.56C220.108 67.56 217.508 64.84 217.508 61.64C217.508 58.44 220.108 55.76 223.228 55.76C226.308 55.76 228.908 58.44 228.908 61.64C228.908 64.84 226.308 67.56 223.228 67.56ZM23.88 99.84V94.52H2.72V122H23.88V116.68H8.64V110.64H22.44V105.32H8.64V99.84H23.88ZM43.625 94.04V104.28C41.985 102.12 39.585 100.84 36.665 100.84C31.145 100.84 27.145 105.32 27.145 111.64C27.145 118 31.145 122.48 36.665 122.48C39.585 122.48 41.985 121.2 43.625 119.04V122H49.465V94.04H43.625ZM38.345 117.56C35.105 117.56 32.825 115.12 32.825 111.64C32.825 108.2 35.105 105.76 38.345 105.76C41.425 105.76 43.625 108.2 43.625 111.64C43.625 115.12 41.425 117.56 38.345 117.56ZM68.3113 101.32V113.68L68.2713 113.56C68.2713 115.8 66.3913 117.56 63.9513 117.56C61.6313 117.56 60.0313 115.8 60.0313 113.24V101.32H54.3913V114.48C54.3913 119.16 57.5913 122.48 62.0713 122.48C64.7513 122.48 67.0713 121.28 68.3113 119.4V122H74.1513V101.32H68.3113ZM86.0816 122H91.4816L100.322 101.32H94.2416L88.8016 115.28L83.2416 101.32H77.1216L86.0816 122ZM106.339 98.48C108.059 98.48 109.459 97.04 109.459 95.28C109.459 93.64 108.059 92.16 106.339 92.16C104.539 92.16 103.139 93.64 103.139 95.28C103.139 97.04 104.539 98.48 106.339 98.48ZM103.379 122H109.219V101.32H103.379V122ZM139.17 122.48C147.13 122.48 153.77 115.96 153.77 108.24C153.77 100.52 147.13 94.04 139.17 94.04C131.29 94.04 124.57 100.52 124.57 108.24C124.57 115.96 131.29 122.48 139.17 122.48ZM139.17 117.12C134.57 117.12 130.65 113.04 130.65 108.24C130.65 103.48 134.57 99.4 139.17 99.4C143.81 99.4 147.73 103.48 147.73 108.24C147.73 113.04 143.81 117.12 139.17 117.12ZM169.911 100.84C167.231 100.84 164.911 102.04 163.671 103.92V101.32H157.831V122H163.671V109.64L163.711 109.76C163.711 107.52 165.591 105.76 168.031 105.76C170.351 105.76 171.951 107.52 171.951 110.08V122H177.591V108.84C177.591 104.16 174.391 100.84 169.911 100.84ZM182.521 122H188.361V94.04H182.521V122ZM196.378 98.48C198.098 98.48 199.498 97.04 199.498 95.28C199.498 93.64 198.098 92.16 196.378 92.16C194.578 92.16 193.178 93.64 193.178 95.28C193.178 97.04 194.578 98.48 196.378 98.48ZM193.418 122H199.258V101.32H193.418V122ZM216.317 100.84C213.637 100.84 211.317 102.04 210.077 103.92V101.32H204.237V122H210.077V109.64L210.117 109.76C210.117 107.52 211.997 105.76 214.437 105.76C216.757 105.76 218.357 107.52 218.357 110.08V122H223.997V108.84C223.997 104.16 220.797 100.84 216.317 100.84ZM238.687 117.32C236.247 117.32 234.447 115.8 233.767 113.56H248.687C248.687 105.76 244.887 100.84 238.407 100.84C232.367 100.84 227.767 105.36 227.767 111.6C227.767 117.96 232.567 122.48 238.727 122.48C241.767 122.48 245.327 121.2 247.167 119.28L243.447 115.48C242.327 116.56 240.327 117.32 238.687 117.32ZM238.647 106C241.007 106 242.527 107.32 243.087 109.36H233.847C234.607 107.28 236.447 106 238.647 106ZM8.44 166.68V144.52H2.52V172H22.12V166.68H8.44ZM35.5231 167.32C33.0831 167.32 31.2831 165.8 30.6031 163.56H45.5231C45.5231 155.76 41.7231 150.84 35.2431 150.84C29.2031 150.84 24.6031 155.36 24.6031 161.6C24.6031 167.96 29.4031 172.48 35.5631 172.48C38.6031 172.48 42.1631 171.2 44.0031 169.28L40.2831 165.48C39.1631 166.56 37.1631 167.32 35.5231 167.32ZM35.4831 156C37.8431 156 39.3631 157.32 39.9231 159.36H30.6831C31.4431 157.28 33.2831 156 35.4831 156ZM58.7141 150.84C55.8341 150.84 52.9941 151.64 50.0741 153.12L52.0341 157C53.6741 156.16 55.4741 155.52 57.3941 155.52C60.7941 155.52 62.1541 157.44 62.1541 159.64V160.04C60.3941 159.36 58.5541 159 56.8741 159C52.0741 159 48.2741 161.8 48.2741 165.88C48.2741 169.84 51.6741 172.48 56.0741 172.48C58.3141 172.48 60.6741 171.6 62.1541 169.92V172H67.7941V159.64C67.7941 154.24 64.1141 150.84 58.7141 150.84ZM57.3941 168.44C55.3941 168.44 53.9141 167.4 53.9141 165.72C53.9141 164.04 55.5941 162.8 57.7141 162.8C59.3141 162.8 60.8341 163.08 62.1541 163.56V165.48C61.7541 167.4 59.6341 168.44 57.3941 168.44ZM78.5563 155.16V151.32H72.7163V172H78.5563V162.12C78.5563 158.24 81.3163 155.76 85.6363 155.76V150.84C82.4763 150.84 79.9163 152.48 78.5563 155.16ZM100.965 150.84C98.2853 150.84 95.9653 152.04 94.7253 153.92V151.32H88.8853V172H94.7253V159.64L94.7653 159.76C94.7653 157.52 96.6453 155.76 99.0853 155.76C101.405 155.76 103.005 157.52 103.005 160.08V172H108.645V158.84C108.645 154.16 105.445 150.84 100.965 150.84ZM116.496 148.48C118.216 148.48 119.616 147.04 119.616 145.28C119.616 143.64 118.216 142.16 116.496 142.16C114.696 142.16 113.296 143.64 113.296 145.28C113.296 147.04 114.696 148.48 116.496 148.48ZM113.536 172H119.376V151.32H113.536V172ZM136.434 150.84C133.754 150.84 131.434 152.04 130.194 153.92V151.32H124.354V172H130.194V159.64L130.234 159.76C130.234 157.52 132.114 155.76 134.554 155.76C136.874 155.76 138.474 157.52 138.474 160.08V172H144.114V158.84C144.114 154.16 140.914 150.84 136.434 150.84ZM164.004 151.32V154.12C162.604 152.16 159.964 150.84 157.164 150.84C151.964 150.84 148.004 154.88 148.004 160.64C148.004 166.4 151.964 170.48 157.164 170.48C159.884 170.48 162.364 169.28 164.004 167.28V169.56C164.004 172.24 161.604 173.96 157.844 173.96C155.444 173.96 153.044 173.2 151.684 172L149.644 176.12C151.684 177.72 155.124 178.88 158.764 178.88C165.284 178.88 169.884 175.12 169.884 169.8V151.32H164.004ZM159.004 165.56C156.084 165.56 154.004 163.52 154.004 160.64C154.004 157.76 156.084 155.76 159.004 155.76C161.924 155.76 164.004 157.76 164.004 160.64C164.004 163.52 161.924 165.56 159.004 165.56ZM186.353 172H192.233V163.08H198.713C204.673 163.08 209.073 159.24 209.073 153.8C209.073 148.36 204.673 144.52 198.713 144.52H186.353V172ZM192.233 157.68V149.92H198.073C200.993 149.92 202.993 151.44 202.993 153.8C202.993 156.16 200.993 157.68 198.073 157.68H192.233ZM212.599 172H218.439V144.04H212.599V172ZM232.777 150.84C229.897 150.84 227.057 151.64 224.137 153.12L226.097 157C227.737 156.16 229.537 155.52 231.457 155.52C234.857 155.52 236.217 157.44 236.217 159.64V160.04C234.457 159.36 232.617 159 230.937 159C226.137 159 222.337 161.8 222.337 165.88C222.337 169.84 225.737 172.48 230.137 172.48C232.377 172.48 234.737 171.6 236.217 169.92V172H241.857V159.64C241.857 154.24 238.177 150.84 232.777 150.84ZM231.457 168.44C229.457 168.44 227.977 167.4 227.977 165.72C227.977 164.04 229.657 162.8 231.777 162.8C233.377 162.8 234.897 163.08 236.217 163.56V165.48C235.817 167.4 233.697 168.44 231.457 168.44ZM257.659 166.88C257.259 167.28 256.459 167.56 255.659 167.56C254.579 167.56 253.699 166.6 253.699 165.24V156.04H258.179V151.32H253.699V145.64H248.099V151.32H245.259V156.04H248.099V166.16C248.099 169.88 250.659 172.48 254.299 172.48C255.979 172.48 257.859 171.76 259.059 170.68L257.659 166.88ZM269.636 150.2C269.636 148.84 270.516 147.88 271.596 147.88C272.396 147.88 273.196 148.16 273.596 148.56L274.996 145C273.796 143.92 271.916 143.2 270.236 143.2C266.596 143.2 264.036 145.8 264.036 149.52V151.32H261.196V156.04H264.036V172H269.636V156.04H274.116V151.32H269.636V150.2ZM288.033 172.48C294.153 172.48 299.273 167.52 299.273 161.64C299.273 155.76 294.153 150.84 288.033 150.84C281.873 150.84 276.713 155.76 276.713 161.64C276.713 167.52 281.873 172.48 288.033 172.48ZM288.033 167.56C284.913 167.56 282.313 164.84 282.313 161.64C282.313 158.44 284.913 155.76 288.033 155.76C291.113 155.76 293.713 158.44 293.713 161.64C293.713 164.84 291.113 167.56 288.033 167.56ZM309.064 155.16V151.32H303.224V172H309.064V162.12C309.064 158.24 311.824 155.76 316.144 155.76V150.84C312.984 150.84 310.424 152.48 309.064 155.16ZM344.113 150.84C341.033 150.84 338.473 152.32 337.393 154.6C336.113 152.28 333.673 150.84 330.833 150.84C328.273 150.84 326.233 152.08 325.233 154.04V151.32H319.393V172H325.233V159.52C325.233 157.32 326.873 155.76 329.233 155.76C331.353 155.76 332.873 157.44 332.873 159.84V172.04H338.473V159.52C338.473 157.32 340.153 155.76 342.473 155.76C344.633 155.76 346.153 157.44 346.153 159.84V172.04H351.753V158.84C351.753 154.16 348.433 150.84 344.113 150.84Z" fill="#0A033C"/>
<path d="M36.8186 4.54V2.26H26.4786V16H36.8186V13.72H28.9786V10.14H36.0786V7.86H28.9786V4.54H36.8186ZM46.993 2.02V7.26C46.173 6.1 44.933 5.42 43.413 5.42C40.673 5.42 38.673 7.66 38.673 10.82C38.673 14 40.673 16.24 43.413 16.24C44.933 16.24 46.173 15.56 46.993 14.4V16H49.433V2.02H46.993ZM44.073 14.16C42.333 14.16 41.093 12.76 41.093 10.82C41.093 8.88 42.333 7.5 44.073 7.5C45.793 7.5 46.993 8.88 46.993 10.82C46.993 12.76 45.793 14.16 44.073 14.16ZM59.1798 5.66V12.2C59.0198 13.3 57.9598 14.16 56.6798 14.16C55.3998 14.16 54.4998 13.16 54.4998 11.76V5.66H52.1398V12.24C52.1398 14.58 53.7198 16.24 55.9798 16.24C57.3398 16.24 58.5398 15.58 59.1798 14.62V16H61.6198V5.66H59.1798ZM67.7688 16H70.0688L74.4488 5.66H71.8488L68.9088 13.18L65.9087 5.66H63.3288L67.7688 16ZM77.3847 4.1C78.1447 4.1 78.7647 3.44 78.7647 2.7C78.7647 1.96 78.1447 1.32 77.3847 1.32C76.6047 1.32 75.9847 1.96 75.9847 2.7C75.9847 3.44 76.6047 4.1 77.3847 4.1ZM76.1447 16H78.5847V5.66H76.1447V16Z" fill="#0A033C"/>
<rect width="20" height="20" rx="5" fill="#FF6652"/>
<path d="M5.83584 5.4165C5.83551 5.4165 5.83515 5.4165 5.83483 5.4165C5.72133 5.4165 5.61458 5.46075 5.53398 5.54115C5.45248 5.62244 5.40759 5.73069 5.40759 5.84592V12.2849C5.40759 12.521 5.60044 12.7136 5.83753 12.7142C6.83705 12.7166 8.51165 12.9249 9.66688 14.1339V7.39526C9.66688 7.31522 9.64644 7.24002 9.60785 7.1778C8.65969 5.65085 6.83762 5.41885 5.83584 5.4165Z" fill="white"/>
<path d="M14.593 12.285V5.84592C14.593 5.73069 14.5481 5.62244 14.4666 5.54115C14.386 5.46075 14.2792 5.4165 14.1658 5.4165C14.1654 5.4165 14.1651 5.4165 14.1647 5.4165C13.163 5.41889 11.3409 5.65089 10.3927 7.17784C10.3541 7.24007 10.3337 7.31526 10.3337 7.3953V14.1339C11.489 12.9249 13.1636 12.7166 14.1631 12.7142C14.4001 12.7136 14.593 12.5211 14.593 12.285Z" fill="white"/>
<path d="M15.5704 6.90137H15.2591V12.2849C15.2591 12.8877 14.7679 13.3793 14.1641 13.3808C13.3163 13.3828 11.9184 13.5486 10.9283 14.4856C12.6406 14.0664 14.4456 14.3389 15.4743 14.5734C15.6027 14.6026 15.7355 14.5724 15.8384 14.4904C15.9409 14.4085 15.9998 14.2862 15.9998 14.155V7.3307C15.9998 7.09397 15.8071 6.90137 15.5704 6.90137Z" fill="white"/>
<path d="M4.74069 12.2849V6.90137H4.42933C4.19265 6.90137 4 7.09397 4 7.3307V14.1548C4 14.2862 4.05883 14.4084 4.16137 14.4902C4.2642 14.5722 4.39681 14.6026 4.52546 14.5732C5.55415 14.3388 7.3592 14.0663 9.07137 14.4855C8.08139 13.5485 6.68348 13.3828 5.83568 13.3808C5.23192 13.3793 4.74069 12.8877 4.74069 12.2849Z" fill="white"/>
</svg>
