<svg width="334" height="100" viewBox="0 0 334 100" fill="none" xmlns="http://www.w3.org/2000/svg">
<rect x="0.333984" width="333.333" height="100" rx="10" fill="white"/>
<path d="M110.059 54.15V39.825H106.959V57H118.884V54.15H110.059ZM122.866 42.125C123.816 42.125 124.591 41.3 124.591 40.375C124.591 39.45 123.816 38.65 122.866 38.65C121.891 38.65 121.116 39.45 121.116 40.375C121.116 41.3 121.891 42.125 122.866 42.125ZM121.316 57H124.366V44.075H121.316V57ZM132.062 57H134.937L140.412 44.075H137.162L133.487 53.475L129.737 44.075H126.512L132.062 57ZM147.726 54.6C145.876 54.6 144.526 53.35 144.151 51.575H153.901C153.901 46.8 151.576 43.775 147.576 43.775C143.901 43.775 141.001 46.625 141.001 50.5C141.001 54.475 144.051 57.3 147.751 57.3C149.626 57.3 151.876 56.5 153.001 55.3L151.076 53.3C150.351 54.05 148.926 54.6 147.726 54.6ZM147.701 46.475C149.526 46.475 150.626 47.625 150.976 49.25H144.176C144.626 47.55 146.001 46.475 147.701 46.475ZM172.1 57.3C174.625 57.3 176.925 56.225 178.575 54.5L176.375 52.45C175.3 53.675 173.775 54.45 172.1 54.45C168.925 54.45 166.25 51.7 166.25 48.4C166.25 45.125 168.925 42.375 172.1 42.375C173.75 42.375 175.3 43.15 176.35 44.375L178.575 42.3C176.925 40.6 174.625 39.525 172.1 39.525C167.2 39.525 163.075 43.575 163.075 48.4C163.075 53.225 167.2 57.3 172.1 57.3ZM180.886 57H183.936V39.525H180.886V57ZM192.932 43.775C191.307 43.775 189.607 44.225 187.782 45.125L188.832 47.25C189.932 46.7 191.107 46.275 192.332 46.275C194.682 46.275 195.507 47.725 195.507 49.225V49.575C194.332 49.125 193.057 48.875 191.882 48.875C188.982 48.875 186.607 50.625 186.607 53.175C186.607 55.675 188.682 57.3 191.432 57.3C192.932 57.3 194.557 56.65 195.507 55.45V57H198.482V49.225C198.482 45.95 196.357 43.775 192.932 43.775ZM192.107 55.075C190.657 55.075 189.582 54.3 189.582 53.075C189.582 51.85 190.807 51 192.332 51C193.482 51 194.557 51.175 195.507 51.5V52.95C195.157 54.325 193.582 55.075 192.107 55.075ZM206.559 57.3C209.584 57.3 211.634 55.7 211.634 53.225C211.634 50.525 209.284 49.775 207.109 49.175C205.134 48.6 204.459 48.35 204.459 47.525C204.459 46.8 205.284 46.375 206.359 46.375C207.484 46.375 208.809 46.775 210.034 47.55L211.309 45.325C209.909 44.4 208.134 43.775 206.359 43.775C203.484 43.775 201.484 45.425 201.484 47.85C201.509 50.15 203.284 50.95 206.084 51.675C207.559 52.075 208.684 52.4 208.684 53.4C208.684 54.2 207.834 54.725 206.609 54.725C204.984 54.725 203.534 54.125 202.284 53.225L200.909 55.35C202.459 56.6 204.584 57.3 206.559 57.3ZM219.059 57.3C222.084 57.3 224.134 55.7 224.134 53.225C224.134 50.525 221.784 49.775 219.609 49.175C217.634 48.6 216.959 48.35 216.959 47.525C216.959 46.8 217.784 46.375 218.859 46.375C219.984 46.375 221.309 46.775 222.534 47.55L223.809 45.325C222.409 44.4 220.634 43.775 218.859 43.775C215.984 43.775 213.984 45.425 213.984 47.85C214.009 50.15 215.784 50.95 218.584 51.675C220.059 52.075 221.184 52.4 221.184 53.4C221.184 54.2 220.334 54.725 219.109 54.725C217.484 54.725 216.034 54.125 214.784 53.225L213.409 55.35C214.959 56.6 217.084 57.3 219.059 57.3ZM232.809 54.6C230.959 54.6 229.609 53.35 229.234 51.575H238.984C238.984 46.8 236.659 43.775 232.659 43.775C228.984 43.775 226.084 46.625 226.084 50.5C226.084 54.475 229.134 57.3 232.834 57.3C234.709 57.3 236.959 56.5 238.084 55.3L236.159 53.3C235.434 54.05 234.009 54.6 232.809 54.6ZM232.784 46.475C234.609 46.475 235.709 47.625 236.059 49.25H229.259C229.709 47.55 231.084 46.475 232.784 46.475ZM246.403 57.3C249.428 57.3 251.478 55.7 251.478 53.225C251.478 50.525 249.128 49.775 246.953 49.175C244.978 48.6 244.303 48.35 244.303 47.525C244.303 46.8 245.128 46.375 246.203 46.375C247.328 46.375 248.653 46.775 249.878 47.55L251.153 45.325C249.753 44.4 247.978 43.775 246.203 43.775C243.328 43.775 241.328 45.425 241.328 47.85C241.353 50.15 243.128 50.95 245.928 51.675C247.403 52.075 248.528 52.4 248.528 53.4C248.528 54.2 247.678 54.725 246.453 54.725C244.828 54.725 243.378 54.125 242.128 53.225L240.753 55.35C242.303 56.6 244.428 57.3 246.403 57.3Z" fill="#0A033C"/>
<rect x="15.334" y="15" width="70" height="70" rx="10" fill="#F8F2FF"/>
<path d="M51.6725 43.236C50.9284 43.9785 49.7225 43.9785 48.9784 43.236C48.2345 42.4935 48.2345 41.2896 48.9784 40.5471C49.7225 39.8046 50.9284 39.8046 51.6725 40.5471C52.4164 41.2896 52.4164 42.4935 51.6725 43.236Z" fill="#9C4DF4"/>
<path d="M54.275 46.1168C54.0429 46.1168 53.8108 46.0283 53.6341 45.8509C53.2807 45.497 53.2814 44.9237 53.6352 44.5705C54.3523 43.8548 54.7471 42.9033 54.7471 41.8915C54.7471 40.8796 54.3523 39.9281 53.6352 39.2124C53.2814 38.859 53.2807 38.2859 53.6341 37.9318C53.9873 37.578 54.5606 37.5773 54.9145 37.9307C55.9744 38.9886 56.5581 40.395 56.5581 41.8915C56.5581 43.3877 55.9744 44.7944 54.9145 45.8523C54.7378 46.0287 54.5064 46.1168 54.275 46.1168Z" fill="#9C4DF4"/>
<path d="M56.323 48.7827C56.0909 48.7827 55.8588 48.6941 55.6821 48.5169C55.3287 48.1628 55.3294 47.5897 55.6833 47.2363C57.1138 45.8086 57.9018 43.9104 57.9018 41.8915C57.9018 39.8725 57.1138 37.9744 55.6833 36.5466C55.3294 36.1932 55.3287 35.6201 55.6821 35.266C56.0355 34.9122 56.6086 34.9115 56.9625 35.2649C58.7359 37.0348 59.7127 39.3882 59.7125 41.8915C59.7125 44.3948 58.7359 46.7483 56.9625 48.5183C56.7858 48.6945 56.5544 48.7827 56.323 48.7827Z" fill="#9C4DF4"/>
<path d="M46.3714 46.1164C46.14 46.1164 45.9086 46.0283 45.7317 45.8519C44.6717 44.794 44.0881 43.3873 44.0881 41.8911C44.0881 40.3946 44.6717 38.9881 45.7317 37.9303C46.0855 37.5769 46.6589 37.5773 47.012 37.9314C47.3654 38.2853 47.3648 38.8586 47.0109 39.212C46.2938 39.9277 45.899 40.8792 45.899 41.8911C45.899 42.9029 46.2938 43.8544 47.0109 44.5701C47.3648 44.9233 47.3654 45.4966 47.012 45.8505C46.8353 46.0276 46.6033 46.1164 46.3714 46.1164Z" fill="#9C4DF4"/>
<path d="M44.3234 48.7835C44.0918 48.7835 43.8604 48.6954 43.6837 48.5189C41.9103 46.749 40.9337 44.3956 40.9337 41.8923C40.9337 39.3888 41.9103 37.0355 43.6837 35.2655C44.0375 34.9123 44.6109 34.9128 44.964 35.2669C45.3174 35.6207 45.3167 36.1939 44.9629 36.5472C43.5324 37.975 42.7443 39.8731 42.7443 41.8921C42.7443 43.9111 43.5324 45.8094 44.9629 47.2372C45.3167 47.5906 45.3174 48.1637 44.964 48.5178C44.7873 48.6949 44.5553 48.7835 44.3234 48.7835Z" fill="#9C4DF4"/>
<path d="M62.2567 50.3479H38.3896C37.2198 50.3479 36.2715 51.2962 36.2715 52.4657V62.8819C36.2715 64.0517 37.2198 65 38.3896 65H62.2564C63.4263 65 64.3745 64.0517 64.3745 62.8819V52.4657C64.3745 51.2962 63.4263 50.3479 62.2567 50.3479V50.3479ZM43.2366 62.2825H39.9007C39.4008 62.2825 38.9955 61.8771 38.9955 61.377V53.9709C38.9955 53.471 39.4008 53.0654 39.9007 53.0654C40.4008 53.0654 40.8061 53.4708 40.8061 53.9709V60.4716H43.2366C43.7367 60.4716 44.1421 60.8769 44.1421 61.377C44.1421 61.8771 43.7367 62.2825 43.2366 62.2825ZM46.9473 61.377C46.9473 61.8771 46.5419 62.2825 46.0418 62.2825C45.5417 62.2825 45.1363 61.8771 45.1363 61.377V53.9709C45.1363 53.471 45.5417 53.0654 46.0418 53.0654C46.5419 53.0654 46.9473 53.4708 46.9473 53.9709V61.377ZM54.5653 54.2327L52.3294 61.6386C52.3292 61.6393 52.3289 61.64 52.3287 61.6407C52.0859 62.4695 50.8479 62.4491 50.5965 61.6407C50.5963 61.64 50.5961 61.6393 50.5959 61.6386L48.3599 54.2327C48.2155 53.7539 48.4863 53.2487 48.9651 53.1041C49.4434 52.9597 49.949 53.2304 50.0935 53.7093L51.4626 58.2441L52.8318 53.7093C52.9764 53.2304 53.4816 52.9594 53.9604 53.1041C54.439 53.2487 54.71 53.7539 54.5653 54.2327V54.2327ZM60.1356 56.3022C60.6357 56.3022 61.0411 56.7076 61.0411 57.2077C61.0411 57.7076 60.6357 58.1132 60.1356 58.1132H57.5662V60.4716H60.6234C61.1235 60.4716 61.5288 60.8769 61.5288 61.377C61.5288 61.8771 61.1235 62.2825 60.6234 62.2825H56.6608C56.1606 62.2825 55.7553 61.8771 55.7553 61.377V53.9709C55.7553 53.471 56.1606 53.0654 56.6608 53.0654H60.7454C61.2452 53.0654 61.6508 53.4708 61.6508 53.9709C61.6508 54.471 61.2452 54.8763 60.7454 54.8763H57.566V56.3022H60.1356Z" fill="#9C4DF4"/>
</svg>
