<svg width="239" height="50" viewBox="0 0 239 50" fill="none" xmlns="http://www.w3.org/2000/svg">
<rect width="239" height="50" rx="10" fill="white"/>
<path d="M21.74 31H23.76V20.58L31.66 31H33.68V17.26H31.66V27.68L23.76 17.26H21.74V31ZM41.6097 29.48C39.8297 29.48 38.5697 28.24 38.3097 26.52H46.4497C46.4497 22.82 44.6297 20.42 41.4697 20.42C38.6097 20.42 36.3097 22.7 36.3097 25.8C36.3097 28.98 38.7497 31.24 41.6297 31.24C43.0897 31.24 44.8897 30.62 45.8097 29.64L44.5697 28.36C43.9497 29 42.6897 29.48 41.6097 29.48ZM41.5497 22.18C43.3297 22.18 44.3097 23.34 44.5297 24.94H38.3297C38.6497 23.26 39.9497 22.18 41.5497 22.18ZM52.1847 31H54.0447L58.4047 20.66H56.2647L53.1047 28.7L49.8847 20.66H47.7447L52.1847 31ZM64.3441 29.48C62.5641 29.48 61.3041 28.24 61.0441 26.52H69.1841C69.1841 22.82 67.3641 20.42 64.2041 20.42C61.3441 20.42 59.0441 22.7 59.0441 25.8C59.0441 28.98 61.4841 31.24 64.3641 31.24C65.8241 31.24 67.6241 30.62 68.5441 29.64L67.3041 28.36C66.6841 29 65.4241 29.48 64.3441 29.48ZM64.2841 22.18C66.0641 22.18 67.0441 23.34 67.2641 24.94H61.0641C61.3841 23.26 62.6841 22.18 64.2841 22.18ZM73.5591 22.64V20.66H71.5791V31H73.5591V25.12C73.7391 23.32 75.2591 22.14 77.3991 22.14V20.42C75.6191 20.42 74.2191 21.28 73.5591 22.64ZM90.0333 31.22C93.2733 31.22 95.0333 29.46 95.0333 27.14C95.0333 24.68 93.1333 23.76 90.3933 23.12C88.1333 22.58 86.9533 22.14 86.9533 20.86C86.9533 19.76 88.0333 18.78 89.5733 18.78C90.9733 18.78 92.3533 19.4 93.5133 20.46L94.6733 18.94C93.3533 17.78 91.7733 17 89.6533 17C86.8933 17 84.8933 18.74 84.8933 21.04C84.8933 23.52 86.7533 24.36 89.5533 25.02C91.8533 25.54 92.9933 26.04 92.9933 27.34C92.9933 28.44 92.0133 29.44 90.1133 29.44C88.2533 29.44 86.8133 28.68 85.5933 27.52L84.3733 29.02C85.8333 30.42 87.7333 31.22 90.0333 31.22ZM102.296 29.14C102.076 29.36 101.676 29.52 101.236 29.52C100.656 29.52 100.176 29 100.176 28.28V22.34H102.616V20.66H100.176V17.82H98.2356V20.66H96.6756V22.34H98.2356V28.42C98.2356 30.08 99.3556 31.24 100.956 31.24C101.696 31.24 102.456 30.96 103.016 30.5L102.296 29.14ZM109.934 31.24C112.874 31.24 115.354 28.76 115.354 25.82C115.354 22.88 112.874 20.42 109.934 20.42C106.974 20.42 104.474 22.88 104.474 25.82C104.474 28.76 106.974 31.24 109.934 31.24ZM109.934 29.52C108.034 29.52 106.454 27.84 106.454 25.82C106.454 23.82 108.034 22.14 109.934 22.14C111.794 22.14 113.374 23.82 113.374 25.82C113.374 27.84 111.794 29.52 109.934 29.52ZM123.41 20.42C121.81 20.42 120.53 21.18 119.73 22.44V20.66H117.77V34.44H119.73V29.2C120.53 30.48 121.81 31.24 123.41 31.24C126.13 31.24 128.17 29 128.17 25.82C128.17 22.66 126.13 20.42 123.41 20.42ZM122.93 29.52C121.07 29.52 119.73 27.98 119.73 25.82C119.73 23.66 121.07 22.14 122.93 22.14C124.83 22.14 126.17 23.66 126.17 25.82C126.17 27.98 124.83 29.52 122.93 29.52ZM138.204 29.12V17.26H136.164V31H145.484V29.12H138.204ZM152.293 29.48C150.513 29.48 149.253 28.24 148.993 26.52H157.133C157.133 22.82 155.313 20.42 152.153 20.42C149.293 20.42 146.993 22.7 146.993 25.8C146.993 28.98 149.433 31.24 152.313 31.24C153.773 31.24 155.573 30.62 156.493 29.64L155.253 28.36C154.633 29 153.373 29.48 152.293 29.48ZM152.233 22.18C154.013 22.18 154.993 23.34 155.213 24.94H149.013C149.333 23.26 150.633 22.18 152.233 22.18ZM163.768 20.42C162.628 20.42 161.328 20.72 159.848 21.46L160.568 22.92C161.468 22.46 162.468 22.06 163.488 22.06C165.548 22.06 166.148 23.44 166.148 24.74V25.06C165.148 24.72 164.048 24.5 163.028 24.5C160.748 24.5 158.888 25.88 158.888 27.94C158.888 29.96 160.508 31.24 162.708 31.24C163.968 31.24 165.388 30.66 166.148 29.58V31H168.088V24.74C168.088 22.18 166.548 20.42 163.768 20.42ZM163.088 29.68C161.788 29.68 160.788 29 160.788 27.88C160.788 26.76 161.948 25.98 163.328 25.98C164.348 25.98 165.308 26.12 166.148 26.38V27.76C165.808 29.04 164.368 29.68 163.088 29.68ZM173.032 22.64V20.66H171.052V31H173.032V25.12C173.212 23.32 174.732 22.14 176.872 22.14V20.42C175.092 20.42 173.692 21.28 173.032 22.64ZM184.063 20.42C182.663 20.42 181.403 21.14 180.783 22.16V20.66H178.803V31H180.783V24.3C180.943 23.08 182.183 22.14 183.623 22.14C185.023 22.14 186.003 23.22 186.003 24.76V31H187.943V24.42C187.943 22.08 186.343 20.42 184.063 20.42ZM191.756 18.94C192.396 18.94 192.936 18.38 192.936 17.74C192.936 17.12 192.396 16.56 191.756 16.56C191.076 16.56 190.556 17.12 190.556 17.74C190.556 18.38 191.076 18.94 191.756 18.94ZM190.756 31H192.736V20.66H190.756V31ZM200.86 20.42C199.46 20.42 198.2 21.14 197.58 22.16V20.66H195.6V31H197.58V24.3C197.74 23.08 198.98 22.14 200.42 22.14C201.82 22.14 202.8 23.22 202.8 24.76V31H204.74V24.42C204.74 22.08 203.14 20.42 200.86 20.42ZM215.433 20.66V22.32C214.653 21.16 213.333 20.42 211.773 20.42C209.053 20.42 207.073 22.44 207.073 25.32C207.073 28.2 209.053 30.24 211.773 30.24C213.333 30.24 214.613 29.54 215.433 28.36V29.86C215.433 31.66 214.093 32.72 211.873 32.72C210.633 32.72 209.393 32.3 208.633 31.58L207.853 33.06C208.833 33.86 210.433 34.44 212.173 34.44C215.233 34.44 217.413 32.56 217.413 29.9V20.66H215.433ZM212.273 28.52C210.433 28.52 209.133 27.2 209.133 25.32C209.133 23.46 210.433 22.14 212.273 22.14C214.113 22.14 215.433 23.46 215.433 25.32C215.433 27.2 214.113 28.52 212.273 28.52Z" fill="#FF6652"/>
</svg>
