<svg width="334" height="100" viewBox="0 0 334 100" fill="none" xmlns="http://www.w3.org/2000/svg">
<rect x="0.666992" width="333.333" height="100" rx="10" fill="white"/>
<path d="M121.492 57L117.192 50.9C119.667 50.125 121.342 48.125 121.342 45.525C121.342 42.175 118.592 39.825 114.917 39.825H107.442V57H110.567V51.225H113.892L117.942 57H121.492ZM110.567 42.7H114.567C116.692 42.7 118.167 43.775 118.167 45.525C118.167 47.275 116.692 48.35 114.567 48.35H110.567V42.7ZM130.091 54.6C128.241 54.6 126.891 53.35 126.516 51.575H136.266C136.266 46.8 133.941 43.775 129.941 43.775C126.266 43.775 123.366 46.625 123.366 50.5C123.366 54.475 126.416 57.3 130.116 57.3C131.991 57.3 134.241 56.5 135.366 55.3L133.441 53.3C132.716 54.05 131.291 54.6 130.091 54.6ZM130.066 46.475C131.891 46.475 132.991 47.625 133.341 49.25H126.541C126.991 47.55 128.366 46.475 130.066 46.475ZM145.134 57.3C147.184 57.3 148.909 56.45 150.159 55.125L148.109 53.35C147.384 54.175 146.284 54.7 145.159 54.7C143.034 54.7 141.259 52.8 141.259 50.525C141.259 48.275 143.034 46.375 145.159 46.375C146.259 46.375 147.334 46.9 148.034 47.675L150.084 45.875C148.859 44.6 147.134 43.775 145.184 43.775C141.409 43.775 138.234 46.85 138.234 50.525C138.234 54.2 141.409 57.3 145.134 57.3ZM158.538 57.3C162.288 57.3 165.463 54.2 165.463 50.525C165.463 46.85 162.288 43.775 158.538 43.775C154.788 43.775 151.613 46.85 151.613 50.525C151.613 54.2 154.788 57.3 158.538 57.3ZM158.538 54.7C156.388 54.7 154.588 52.8 154.588 50.525C154.588 48.275 156.388 46.375 158.538 46.375C160.663 46.375 162.463 48.275 162.463 50.525C162.463 52.8 160.663 54.7 158.538 54.7ZM171.234 46.575V44.075H168.184V57H171.234V50.475C171.234 48.025 173.084 46.375 175.859 46.375V43.775C173.734 43.775 172.059 44.85 171.234 46.575ZM187.943 39.525V46.075C186.918 44.625 185.368 43.775 183.468 43.775C180.043 43.775 177.543 46.575 177.543 50.525C177.543 54.5 180.043 57.3 183.468 57.3C185.368 57.3 186.918 56.45 187.943 55V57H190.993V39.525H187.943ZM184.293 54.7C182.118 54.7 180.568 52.95 180.568 50.525C180.568 48.1 182.118 46.375 184.293 46.375C186.443 46.375 187.943 48.1 187.943 50.525C187.943 52.95 186.443 54.7 184.293 54.7ZM200.452 54.6C198.602 54.6 197.252 53.35 196.877 51.575H206.627C206.627 46.8 204.302 43.775 200.302 43.775C196.627 43.775 193.727 46.625 193.727 50.5C193.727 54.475 196.777 57.3 200.477 57.3C202.352 57.3 204.602 56.5 205.727 55.3L203.802 53.3C203.077 54.05 201.652 54.6 200.452 54.6ZM200.427 46.475C202.252 46.475 203.352 47.625 203.702 49.25H196.902C197.352 47.55 198.727 46.475 200.427 46.475ZM219.096 39.525V46.075C218.071 44.625 216.521 43.775 214.621 43.775C211.196 43.775 208.696 46.575 208.696 50.525C208.696 54.5 211.196 57.3 214.621 57.3C216.521 57.3 218.071 56.45 219.096 55V57H222.146V39.525H219.096ZM215.446 54.7C213.271 54.7 211.721 52.95 211.721 50.525C211.721 48.1 213.271 46.375 215.446 46.375C217.596 46.375 219.096 48.1 219.096 50.525C219.096 52.95 217.596 54.7 215.446 54.7ZM241.134 57.3C243.659 57.3 245.959 56.225 247.609 54.5L245.409 52.45C244.334 53.675 242.809 54.45 241.134 54.45C237.959 54.45 235.284 51.7 235.284 48.4C235.284 45.125 237.959 42.375 241.134 42.375C242.784 42.375 244.334 43.15 245.384 44.375L247.609 42.3C245.959 40.6 243.659 39.525 241.134 39.525C236.234 39.525 232.109 43.575 232.109 48.4C232.109 53.225 236.234 57.3 241.134 57.3ZM249.92 57H252.97V39.525H249.92V57ZM261.966 43.775C260.341 43.775 258.641 44.225 256.816 45.125L257.866 47.25C258.966 46.7 260.141 46.275 261.366 46.275C263.716 46.275 264.541 47.725 264.541 49.225V49.575C263.366 49.125 262.091 48.875 260.916 48.875C258.016 48.875 255.641 50.625 255.641 53.175C255.641 55.675 257.716 57.3 260.466 57.3C261.966 57.3 263.591 56.65 264.541 55.45V57H267.516V49.225C267.516 45.95 265.391 43.775 261.966 43.775ZM261.141 55.075C259.691 55.075 258.616 54.3 258.616 53.075C258.616 51.85 259.841 51 261.366 51C262.516 51 263.591 51.175 264.541 51.5V52.95C264.191 54.325 262.616 55.075 261.141 55.075ZM275.594 57.3C278.619 57.3 280.669 55.7 280.669 53.225C280.669 50.525 278.319 49.775 276.144 49.175C274.169 48.6 273.494 48.35 273.494 47.525C273.494 46.8 274.319 46.375 275.394 46.375C276.519 46.375 277.844 46.775 279.069 47.55L280.344 45.325C278.944 44.4 277.169 43.775 275.394 43.775C272.519 43.775 270.519 45.425 270.519 47.85C270.544 50.15 272.319 50.95 275.119 51.675C276.594 52.075 277.719 52.4 277.719 53.4C277.719 54.2 276.869 54.725 275.644 54.725C274.019 54.725 272.569 54.125 271.319 53.225L269.944 55.35C271.494 56.6 273.619 57.3 275.594 57.3ZM288.094 57.3C291.119 57.3 293.169 55.7 293.169 53.225C293.169 50.525 290.819 49.775 288.644 49.175C286.669 48.6 285.994 48.35 285.994 47.525C285.994 46.8 286.819 46.375 287.894 46.375C289.019 46.375 290.344 46.775 291.569 47.55L292.844 45.325C291.444 44.4 289.669 43.775 287.894 43.775C285.019 43.775 283.019 45.425 283.019 47.85C283.044 50.15 284.819 50.95 287.619 51.675C289.094 52.075 290.219 52.4 290.219 53.4C290.219 54.2 289.369 54.725 288.144 54.725C286.519 54.725 285.069 54.125 283.819 53.225L282.444 55.35C283.994 56.6 286.119 57.3 288.094 57.3Z" fill="#0A033C"/>
<rect x="15.667" y="15" width="70" height="70" rx="10" fill="#E6FFF3"/>
<g clip-path="url(#clip0_1_1927)">
<path d="M50.667 35C42.3827 35 35.667 41.7157 35.667 50C35.667 58.2842 42.3827 64.9999 50.667 64.9999C58.9512 64.9999 65.6669 58.2842 65.6669 50C65.6581 41.7194 58.9476 35.0089 50.667 35ZM56.984 50.4779C56.8802 50.6862 56.7114 50.8551 56.503 50.9589V50.9643L47.9316 55.25C47.4023 55.5145 46.7588 55.2998 46.4942 54.7705C46.419 54.62 46.3803 54.4539 46.3812 54.2857V45.7143C46.381 45.1225 46.8604 44.6427 47.4522 44.6423C47.6186 44.6423 47.7828 44.681 47.9316 44.7553L56.503 49.0411C57.0326 49.305 57.248 49.9483 56.984 50.4779Z" fill="#00C968"/>
</g>
<defs>
<clipPath id="clip0_1_1927">
<rect width="30" height="30" fill="white" transform="translate(35.667 35)"/>
</clipPath>
</defs>
</svg>
